<svg width="24" height="24" viewBox="0 0 24 24" fill="none" xmlns="http://www.w3.org/2000/svg">
<mask id="path-1-inside-1_4970_3864" fill="white">
<path fill-rule="evenodd" clip-rule="evenodd" d="M12 3C8.68629 3 6 5.68629 6 9L6 12.4291C6 13.2967 5 14.1324 5 15C5 16.1046 5.89543 17 7 17H8H16H17C18.1046 17 19 16.1046 19 15C19 14.1324 18 13.2967 18 12.4291V9C18 5.68629 15.3137 3 12 3Z"/>
</mask>
<path d="M6 9H5H5H6ZM7 9C7 6.23858 9.23858 4 12 4V2C8.13401 2 5 5.13401 5 9H7ZM7 12.4291L7 9H5L5 12.4291H7ZM4 15C4 16.6569 5.34315 18 7 18V16C6.44772 16 6 15.5523 6 15H4ZM7 18H8V16H7V18ZM8 18H16V16H8V18ZM16 18H17V16H16V18ZM17 18C18.6569 18 20 16.6569 20 15H18C18 15.5523 17.5523 16 17 16V18ZM17 9V12.4291H19V9H17ZM12 4C14.7614 4 17 6.23858 17 9H19C19 5.13401 15.866 2 12 2V4ZM20 15C20 14.2403 19.5716 13.5647 19.3624 13.2083C19.0716 12.713 19 12.537 19 12.4291H17C17 13.1889 17.4284 13.8645 17.6376 14.2209C17.9284 14.7161 18 14.8922 18 15H20ZM5 12.4291C5 12.537 4.9284 12.713 4.63764 13.2083C4.4284 13.5647 4 14.2403 4 15H6C6 14.8922 6.0716 14.7161 6.36236 14.2209C6.5716 13.8645 7 13.1889 7 12.4291H5Z" fill="white" mask="url(#path-1-inside-1_4970_3864)"/>
<path d="M9.5 17V16.5H10H14H14.5V17C14.5 18.3807 13.3807 19.5 12 19.5C10.6193 19.5 9.5 18.3807 9.5 17Z" stroke="white"/>
</svg>
