<svg width="24" height="24" viewBox="0 0 24 24" fill="none" xmlns="http://www.w3.org/2000/svg">
<mask id="path-1-inside-1_4022_2434" fill="white">
<path fill-rule="evenodd" clip-rule="evenodd" d="M4.5 9C3.67157 9 3 9.67157 3 10.5V18C3 19.6569 4.34315 21 6 21H18C19.6569 21 21 19.6569 21 18V10.5C21 9.67157 20.3284 9 19.5 9H4.5ZM6.75 12C6.33579 12 6 12.3358 6 12.75V14.25C6 14.6642 6.33579 15 6.75 15H8.25C8.66421 15 9 14.6642 9 14.25V12.75C9 12.3358 8.66421 12 8.25 12H6.75ZM10.5 12.75C10.5 12.3358 10.8358 12 11.25 12H12.75C13.1642 12 13.5 12.3358 13.5 12.75V14.25C13.5 14.6642 13.1642 15 12.75 15H11.25C10.8358 15 10.5 14.6642 10.5 14.25V12.75ZM15.75 12C15.3358 12 15 12.3358 15 12.75V14.25C15 14.6642 15.3358 15 15.75 15H17.25C17.6642 15 18 14.6642 18 14.25V12.75C18 12.3358 17.6642 12 17.25 12H15.75Z"/>
</mask>
<path fill-rule="evenodd" clip-rule="evenodd" d="M4.5 9C3.67157 9 3 9.67157 3 10.5V18C3 19.6569 4.34315 21 6 21H18C19.6569 21 21 19.6569 21 18V10.5C21 9.67157 20.3284 9 19.5 9H4.5ZM6.75 12C6.33579 12 6 12.3358 6 12.75V14.25C6 14.6642 6.33579 15 6.75 15H8.25C8.66421 15 9 14.6642 9 14.25V12.75C9 12.3358 8.66421 12 8.25 12H6.75ZM10.5 12.75C10.5 12.3358 10.8358 12 11.25 12H12.75C13.1642 12 13.5 12.3358 13.5 12.75V14.25C13.5 14.6642 13.1642 15 12.75 15H11.25C10.8358 15 10.5 14.6642 10.5 14.25V12.75ZM15.75 12C15.3358 12 15 12.3358 15 12.75V14.25C15 14.6642 15.3358 15 15.75 15H17.25C17.6642 15 18 14.6642 18 14.25V12.75C18 12.3358 17.6642 12 17.25 12H15.75Z" fill="white"/>
<path d="M4 10.5C4 10.2239 4.22386 10 4.5 10V8C3.11929 8 2 9.11929 2 10.5H4ZM4 18V10.5H2V18H4ZM6 20C4.89543 20 4 19.1046 4 18H2C2 20.2091 3.79086 22 6 22V20ZM18 20H6V22H18V20ZM20 18C20 19.1046 19.1046 20 18 20V22C20.2091 22 22 20.2091 22 18H20ZM20 10.5V18H22V10.5H20ZM19.5 10C19.7761 10 20 10.2239 20 10.5H22C22 9.11929 20.8807 8 19.5 8V10ZM4.5 10H19.5V8H4.5V10ZM7 12.75C7 12.8881 6.88807 13 6.75 13V11C5.7835 11 5 11.7835 5 12.75H7ZM7 14.25V12.75H5V14.25H7ZM6.75 14C6.88807 14 7 14.1119 7 14.25H5C5 15.2165 5.7835 16 6.75 16V14ZM8.25 14H6.75V16H8.25V14ZM8 14.25C8 14.1119 8.11193 14 8.25 14V16C9.2165 16 10 15.2165 10 14.25H8ZM8 12.75V14.25H10V12.75H8ZM8.25 13C8.11193 13 8 12.8881 8 12.75H10C10 11.7835 9.2165 11 8.25 11V13ZM6.75 13H8.25V11H6.75V13ZM11.25 11C10.2835 11 9.5 11.7835 9.5 12.75H11.5C11.5 12.8881 11.3881 13 11.25 13V11ZM12.75 11H11.25V13H12.75V11ZM14.5 12.75C14.5 11.7835 13.7165 11 12.75 11V13C12.6119 13 12.5 12.8881 12.5 12.75H14.5ZM14.5 14.25V12.75H12.5V14.25H14.5ZM12.75 16C13.7165 16 14.5 15.2165 14.5 14.25H12.5C12.5 14.1119 12.6119 14 12.75 14V16ZM11.25 16H12.75V14H11.25V16ZM9.5 14.25C9.5 15.2165 10.2835 16 11.25 16V14C11.3881 14 11.5 14.1119 11.5 14.25H9.5ZM9.5 12.75V14.25H11.5V12.75H9.5ZM16 12.75C16 12.8881 15.8881 13 15.75 13V11C14.7835 11 14 11.7835 14 12.75H16ZM16 14.25V12.75H14V14.25H16ZM15.75 14C15.8881 14 16 14.1119 16 14.25H14C14 15.2165 14.7835 16 15.75 16V14ZM17.25 14H15.75V16H17.25V14ZM17 14.25C17 14.1119 17.1119 14 17.25 14V16C18.2165 16 19 15.2165 19 14.25H17ZM17 12.75V14.25H19V12.75H17ZM17.25 13C17.1119 13 17 12.8881 17 12.75H19C19 11.7835 18.2165 11 17.25 11V13ZM15.75 13H17.25V11H15.75V13Z" fill="white" mask="url(#path-1-inside-1_4022_2434)"/>
<path d="M3.5 7C3.5 6.17157 4.17157 5.5 5 5.5H19C19.8284 5.5 20.5 6.17157 20.5 7C20.5 7.27614 20.2761 7.5 20 7.5H4C3.72386 7.5 3.5 7.27614 3.5 7Z" fill="white" stroke="white"/>
<rect x="7.5" y="3.5" width="2" height="4" rx="1" fill="white" stroke="white"/>
<rect x="14.5" y="3.5" width="2" height="4" rx="1" fill="white" stroke="white"/>
</svg>
