<svg width="24" height="24" viewBox="0 0 24 24" fill="none" xmlns="http://www.w3.org/2000/svg">
<mask id="path-1-inside-1_4970_3885" fill="white">
<path fill-rule="evenodd" clip-rule="evenodd" d="M21.2053 11.9081C22.6929 9.92266 22.076 7.11657 20.2755 5.40974C18.0498 3.29981 14.5351 3.39369 12.4251 5.61943L11.8617 6.21383L11.2946 5.6157C9.251 3.45997 5.84676 3.3691 3.69104 5.41272C1.92898 7.08315 1.35112 9.81978 2.71172 11.8307C3.94578 13.6547 5.82971 15.5008 10.7342 19.1108C11.0447 19.3937 11.4301 19.7164 11.9184 20.0921C11.9527 20.1185 12.001 20.1208 12.0366 20.0962C13.0269 19.4114 14.0102 18.562 14.6818 17.9491C18.3886 14.9934 20.073 13.4194 21.2053 11.9081Z"/>
</mask>
<path fill-rule="evenodd" clip-rule="evenodd" d="M21.2053 11.9081C22.6929 9.92266 22.076 7.11657 20.2755 5.40974C18.0498 3.29981 14.5351 3.39369 12.4251 5.61943L11.8617 6.21383L11.2946 5.6157C9.251 3.45997 5.84676 3.3691 3.69104 5.41272C1.92898 7.08315 1.35112 9.81978 2.71172 11.8307C3.94578 13.6547 5.82971 15.5008 10.7342 19.1108C11.0447 19.3937 11.4301 19.7164 11.9184 20.0921C11.9527 20.1185 12.001 20.1208 12.0366 20.0962C13.0269 19.4114 14.0102 18.562 14.6818 17.9491C18.3886 14.9934 20.073 13.4194 21.2053 11.9081Z" fill="#FF8989"/>
<path d="M20.2755 5.40974L20.9635 4.68401V4.68401L20.2755 5.40974ZM21.2053 11.9081L22.0056 12.5077V12.5077L21.2053 11.9081ZM12.4251 5.61943L11.6994 4.93145V4.93145L12.4251 5.61943ZM11.8617 6.21383L11.1359 6.90181L11.8617 7.66736L12.5874 6.9018L11.8617 6.21383ZM11.2946 5.6157L10.5689 6.30368L11.2946 5.6157ZM3.69104 5.41272L3.00306 4.687L3.69104 5.41272ZM2.71172 11.8307L3.53995 11.2704H3.53995L2.71172 11.8307ZM10.7342 19.1108L11.4076 18.3716L11.3691 18.3364L11.327 18.3055L10.7342 19.1108ZM11.9184 20.0921L12.5283 19.2996L12.5283 19.2996L11.9184 20.0921ZM12.0366 20.0962L11.4678 19.2737L11.4678 19.2737L12.0366 20.0962ZM14.6818 17.9491L14.0583 17.1672L14.0323 17.188L14.0077 17.2105L14.6818 17.9491ZM19.5876 6.13548C21.1281 7.59587 21.5064 9.83859 20.405 11.3085L22.0056 12.5077C23.8795 10.0067 23.024 6.63726 20.9635 4.68401L19.5876 6.13548ZM13.1509 6.3074C14.8808 4.48248 17.7626 4.40551 19.5876 6.13548L20.9635 4.68401C18.337 2.19412 14.1893 2.30491 11.6994 4.93145L13.1509 6.3074ZM12.5874 6.9018L13.1509 6.3074L11.6994 4.93145L11.1359 5.52585L12.5874 6.9018ZM10.5689 6.30368L11.1359 6.90181L12.5874 5.52584L12.0203 4.92771L10.5689 6.30368ZM4.37903 6.13844C6.13394 4.47479 8.90524 4.54877 10.5689 6.30368L12.0203 4.92771C9.59677 2.37118 5.55959 2.26341 3.00306 4.687L4.37903 6.13844ZM3.53995 11.2704C2.51011 9.74826 2.89349 7.54673 4.37903 6.13844L3.00306 4.687C0.964472 6.61957 0.192136 9.89131 1.88348 12.3911L3.53995 11.2704ZM11.327 18.3055C6.43648 14.7058 4.67214 12.9438 3.53995 11.2704L1.88348 12.3911C3.21942 14.3657 5.22295 16.2959 10.1414 19.9162L11.327 18.3055ZM12.5283 19.2996C12.0573 18.9372 11.6938 18.6323 11.4076 18.3716L10.0608 19.8501C10.3956 20.1551 10.8029 20.4955 11.3086 20.8847L12.5283 19.2996ZM11.4678 19.2737C11.8066 19.0394 12.2344 19.0734 12.5283 19.2996L11.3086 20.8847C11.671 21.1635 12.1954 21.2021 12.6053 20.9187L11.4678 19.2737ZM14.0077 17.2105C13.3492 17.8113 12.4041 18.6262 11.4678 19.2737L12.6053 20.9187C13.6497 20.1965 14.6711 19.3126 15.3559 18.6877L14.0077 17.2105ZM20.405 11.3085C19.3573 12.7069 17.7652 14.2115 14.0583 17.1672L15.3052 18.731C19.012 15.7753 20.7887 14.132 22.0056 12.5077L20.405 11.3085Z" fill="#FF8989" mask="url(#path-1-inside-1_4970_3885)"/>
</svg>
