<svg width="16" height="16" viewBox="0 0 16 16" fill="none" xmlns="http://www.w3.org/2000/svg">
<path d="M8.4707 3.94434C8.4707 3.54915 8.70167 3.19188 9.06562 3.03787C10.2827 2.52287 13.0333 1.41211 14.1178 1.41211C15.1574 1.41211 16.0001 2.25487 16.0001 3.29446V11.1447C16.0001 12.0624 15.3755 12.8624 14.4852 13.085L9.09197 14.4333C8.7764 14.5122 8.4707 14.2735 8.4707 13.9482V3.94434Z" fill="white"/>
<path d="M0 3.29448C0 2.25489 0.842766 1.41213 1.88235 1.41211C3.17553 1.41208 5.79794 2.51514 6.95677 3.03248C7.30912 3.18979 7.52941 3.54034 7.52941 3.92621V13.9482C7.52941 14.2735 7.22372 14.5122 6.90814 14.4333L1.51493 13.085C0.624596 12.8624 0 12.0624 0 11.1447V3.29448Z" fill="white"/>
</svg>
