<svg width="24" height="24" viewBox="0 0 24 24" fill="none" xmlns="http://www.w3.org/2000/svg">
<circle cx="12" cy="12" r="12" fill="white"/>
<rect width="24" height="24" rx="12" fill="#FF8989"/>
<path fill-rule="evenodd" clip-rule="evenodd" d="M17.5044 11.9423C18.3901 10.691 18.0207 8.92068 16.9445 7.84246C15.6151 6.51045 13.5187 6.56636 12.2621 7.96734L11.9178 8.35117L11.5717 7.96533C10.3546 6.6084 8.32411 6.55428 7.03644 7.84445C5.98328 8.89967 5.63723 10.6261 6.44729 11.8934C7.18449 13.0467 8.30894 14.2124 11.2426 16.4948C11.4238 16.6693 11.6477 16.8678 11.9299 17.0981C11.9631 17.1252 12.0099 17.1273 12.0444 17.1019C12.6279 16.6728 13.205 16.1458 13.6012 15.7637C15.8211 13.893 16.8276 12.8985 17.5044 11.9423Z" fill="white" fill-opacity="0.5"/>
</svg>
