<svg width="24" height="24" viewBox="0 0 24 24" fill="none" xmlns="http://www.w3.org/2000/svg">
<circle cx="12" cy="12" r="12" fill="white"/>
<mask id="path-2-inside-1_4972_7768" fill="white">
<path fill-rule="evenodd" clip-rule="evenodd" d="M19.8163 11.9134C21.0741 10.1364 20.5495 7.62225 19.0212 6.09103C17.1332 4.1994 14.156 4.2788 12.3715 6.26837L11.8827 6.81341L11.3911 6.26541C9.66267 4.33839 6.77906 4.26153 4.9504 6.09374C3.45476 7.59229 2.96334 10.044 4.11372 11.8438C5.1606 13.4815 6.75737 15.137 10.9232 18.3779C11.1855 18.6307 11.5111 18.919 11.9233 19.2545C11.9566 19.2816 12.0035 19.2838 12.0381 19.2585C12.8749 18.646 13.705 17.8882 14.2731 17.3403C17.4258 14.6836 18.8551 13.2713 19.8163 11.9134Z"/>
</mask>
<path d="M19.0212 6.09103L19.729 5.3846L19.729 5.3846L19.0212 6.09103ZM19.8163 11.9134L20.6325 12.4911L19.8163 11.9134ZM12.3715 6.26837L11.6271 5.60067V5.60067L12.3715 6.26837ZM11.8827 6.81341L11.1382 7.48112L11.8827 8.31108L12.6271 7.48111L11.8827 6.81341ZM11.3911 6.26541L10.6467 6.93312L10.6467 6.93312L11.3911 6.26541ZM4.9504 6.09374L4.24261 5.38732L4.9504 6.09374ZM4.11372 11.8438L4.9563 11.3052L4.11372 11.8438ZM10.9232 18.3779L11.617 17.6577L11.5789 17.6211L11.5372 17.5887L10.9232 18.3779ZM11.9233 19.2545L11.2921 20.0301L11.2921 20.0301L11.9233 19.2545ZM12.0381 19.2585L11.4475 18.4515L11.4475 18.4515L12.0381 19.2585ZM14.2731 17.3403L13.6287 16.5757L13.6031 16.5973L13.579 16.6205L14.2731 17.3403ZM18.3134 6.79746C19.5912 8.07767 19.9065 10.055 19.0001 11.3356L20.6325 12.4911C22.2417 10.2178 21.5078 7.16683 19.729 5.3846L18.3134 6.79746ZM13.116 6.93607C14.5172 5.37379 16.8309 5.31208 18.3134 6.79746L19.729 5.3846C17.4355 3.08671 13.7949 3.1838 11.6271 5.60067L13.116 6.93607ZM12.6271 7.48111L13.116 6.93607L11.6271 5.60067L11.1382 6.14571L12.6271 7.48111ZM10.6467 6.93312L11.1382 7.48112L12.6271 6.1457L12.1355 5.5977L10.6467 6.93312ZM5.6582 6.80016C7.08138 5.37421 9.30151 5.43338 10.6467 6.93312L12.1355 5.5977C10.0238 3.24339 6.47674 3.14885 4.24261 5.38732L5.6582 6.80016ZM4.9563 11.3052C4.10547 9.97411 4.42822 8.03253 5.6582 6.80016L4.24261 5.38732C2.48131 7.15204 1.8212 10.114 3.27115 12.3823L4.9563 11.3052ZM11.5372 17.5887C7.38717 14.36 5.9061 12.7911 4.9563 11.3052L3.27115 12.3823C4.41509 14.172 6.12757 15.914 10.3091 19.1672L11.5372 17.5887ZM12.5546 18.4789C12.1596 18.1574 11.8556 17.8876 11.617 17.6577L10.2294 19.0981C10.5155 19.3737 10.8626 19.6805 11.2921 20.0301L12.5546 18.4789ZM11.4475 18.4515C11.7968 18.1958 12.2516 18.2323 12.5546 18.4789L11.2921 20.0301C11.6615 20.3308 12.2102 20.3717 12.6287 20.0654L11.4475 18.4515ZM13.579 16.6205C13.0235 17.1562 12.2309 17.8782 11.4475 18.4515L12.6287 20.0654C13.5189 19.4139 14.3865 18.6203 14.9673 18.0602L13.579 16.6205ZM19.0001 11.3356C18.1201 12.5789 16.7804 13.9198 13.6287 16.5757L14.9175 18.105C18.0712 15.4474 19.5902 13.9637 20.6325 12.4911L19.0001 11.3356Z" fill="#FF8989" mask="url(#path-2-inside-1_4972_7768)"/>
</svg>
