<svg width="33" height="32" viewBox="0 0 33 32" fill="none" xmlns="http://www.w3.org/2000/svg">
<circle cx="16.666" cy="11" r="4.5" stroke="#75BD62"/>
<path d="M16.666 18.5C20.4975 18.5 22.563 19.9967 23.7023 21.6073C24.0413 22.0866 24.1593 22.5502 24.1342 22.9714C24.1089 23.3969 23.9352 23.8149 23.6323 24.1912C23.0206 24.951 21.9098 25.5 20.666 25.5H12.666C11.4222 25.5 10.3114 24.951 9.69975 24.1912C9.39687 23.8149 9.22315 23.3969 9.19781 22.9714C9.17272 22.5502 9.29073 22.0866 9.62977 21.6073C10.7691 19.9967 12.8345 18.5 16.666 18.5Z" stroke="#75BD62"/>
<circle cx="25.666" cy="13" r="2.5" stroke="#75BD62"/>
<circle cx="7.66602" cy="13" r="2.5" stroke="#75BD62"/>
<path fill-rule="evenodd" clip-rule="evenodd" d="M25.6665 18C26.7659 18 27.5153 18.278 28.0392 18.6382C28.5705 19.0034 28.933 19.497 29.1816 20.0177C29.2933 20.2518 29.2546 20.4364 29.1048 20.6124C28.9283 20.8195 28.5873 21 28.1665 21H23.8728C23.956 21.1053 24.0353 21.2116 24.111 21.3186C24.271 21.5449 24.3921 21.7729 24.4776 22H28.1665C29.5473 22 30.6788 20.833 30.084 19.587C29.4739 18.3087 28.2245 17 25.6665 17C23.4585 17 22.2256 17.9751 21.5371 19.064C21.8432 19.2254 22.1267 19.401 22.3891 19.5877C22.617 19.2299 22.9118 18.9009 23.2939 18.6382C23.8178 18.278 24.5672 18 25.6665 18Z" fill="#75BD62"/>
<path fill-rule="evenodd" clip-rule="evenodd" d="M7.66565 18C8.765 18 9.51439 18.278 10.0383 18.6382C10.4204 18.9009 10.7152 19.2299 10.9431 19.5877C11.2055 19.401 11.489 19.2254 11.7951 19.064C11.1066 17.9751 9.87366 17 7.66565 17C5.10767 17 3.85834 18.3087 3.24816 19.587C2.65339 20.833 3.78493 22 5.16565 22H8.85463C8.9401 21.7729 9.06114 21.5449 9.2212 21.3186C9.29686 21.2116 9.37621 21.1053 9.45941 21H5.16565C4.74488 21 4.40385 20.8195 4.22741 20.6124C4.07759 20.4364 4.03891 20.2518 4.15062 20.0177C4.3992 19.497 4.76169 19.0034 5.29298 18.6382C5.8169 18.278 6.5663 18 7.66565 18Z" fill="#75BD62"/>
</svg>
