<svg width="33" height="32" viewBox="0 0 33 32" fill="none" xmlns="http://www.w3.org/2000/svg">
<circle cx="16.667" cy="11" r="4.5" fill="#75BD62" stroke="#75BD62"/>
<path d="M16.667 18.5C20.4985 18.5 22.5639 19.9967 23.7032 21.6073C24.0423 22.0866 24.1603 22.5502 24.1352 22.9714C24.1099 23.3969 23.9361 23.8149 23.6333 24.1912C23.0216 24.951 21.9108 25.5 20.667 25.5H12.667C11.4232 25.5 10.3124 24.951 9.70072 24.1912C9.39785 23.8149 9.22412 23.3969 9.19878 22.9714C9.1737 22.5502 9.2917 22.0866 9.63075 21.6073C10.77 19.9967 12.8355 18.5 16.667 18.5Z" fill="#75BD62" stroke="#75BD62"/>
<circle cx="25.667" cy="13" r="2.5" fill="#75BD62" stroke="#75BD62"/>
<circle cx="7.66699" cy="13" r="2.5" fill="#75BD62" stroke="#75BD62"/>
<path fill-rule="evenodd" clip-rule="evenodd" d="M30.084 19.587C29.4739 18.3087 28.2245 17 25.6665 17C23.4585 17 22.2256 17.9751 21.5371 19.064C22.6842 19.6687 23.5127 20.4727 24.111 21.3186C24.271 21.5449 24.3921 21.7729 24.4776 22H28.1665C29.5473 22 30.6788 20.833 30.084 19.587Z" fill="#75BD62"/>
<path fill-rule="evenodd" clip-rule="evenodd" d="M11.7961 19.064C11.1076 17.9751 9.87464 17 7.66662 17C5.10864 17 3.85932 18.3087 3.24914 19.587C2.65436 20.833 3.78591 22 5.16662 22H8.85561C8.94107 21.7729 9.06212 21.5449 9.22218 21.3186C9.8205 20.4727 10.649 19.6687 11.7961 19.064Z" fill="#75BD62"/>
</svg>
