<svg width="24" height="24" viewBox="0 0 24 24" fill="none" xmlns="http://www.w3.org/2000/svg">
<path fill-rule="evenodd" clip-rule="evenodd" d="M12.8284 7.17157C14.3905 8.73367 14.3905 11.2663 12.8284 12.8284C11.2663 14.3905 8.73367 14.3905 7.17157 12.8284C5.60948 11.2663 5.60948 8.73367 7.17157 7.17157C8.73367 5.60948 11.2663 5.60948 12.8284 7.17157ZM14.8891 13.4796C16.5612 11.1362 16.3457 7.8604 14.2426 5.75736C11.8995 3.41421 8.1005 3.41421 5.75736 5.75736C3.41421 8.10051 3.41421 11.8995 5.75736 14.2426C7.86042 16.3457 11.1363 16.5612 13.4797 14.8891C13.4973 14.9099 13.5159 14.9301 13.5355 14.9497L18.4853 19.8995C18.8758 20.29 19.509 20.29 19.8995 19.8995C20.29 19.5089 20.29 18.8758 19.8995 18.4853L14.9498 13.5355C14.9301 13.5159 14.9099 13.4973 14.8891 13.4796Z" fill="#7BAB6E"/>
</svg>
