<svg width="40" height="40" viewBox="0 0 40 40" fill="none" xmlns="http://www.w3.org/2000/svg">
<circle cx="20" cy="20" r="20" fill="#EBF7E8"/>
<path fill-rule="evenodd" clip-rule="evenodd" d="M24 14C24 16.2091 22.2091 18 20 18C17.7909 18 16 16.2091 16 14C16 11.7909 17.7909 10 20 10C22.2091 10 24 11.7909 24 14ZM26 14C26 17.3137 23.3137 20 20 20C16.6863 20 14 17.3137 14 14C14 10.6863 16.6863 8 20 8C23.3137 8 26 10.6863 26 14ZM27.9177 29.0042C27.4434 26.1644 24.9745 24 22 24H18C15.3741 24 13.1421 25.6869 12.3287 28.0362C11.9674 29.08 12.8954 30 14 30H25C25.5523 30 26 30.4477 26 31C26 31.5523 25.5523 32 25 32H12C10.8954 32 10 31.1046 10 30C10 25.5817 13.5817 22 18 22H22C26.0803 22 29.4471 25.0547 29.9384 29.002C30.0066 29.55 29.5523 30 29 30C28.4477 30 28.0087 29.5489 27.9177 29.0042Z" fill="#7BAB6E"/>
<path d="M24.1828 33.3172C23.9309 33.5691 23.5 33.3907 23.5 33.0343V28.9657C23.5 28.6093 23.9309 28.4309 24.1828 28.6828L26.2172 30.7172C26.3734 30.8734 26.3734 31.1266 26.2172 31.2828L24.1828 33.3172Z" fill="#7BAB6E"/>
</svg>
