<svg width="19" height="23" viewBox="0 0 19 23" fill="none" xmlns="http://www.w3.org/2000/svg">
<path d="M2.42633 1.16138H15.4263C16.2548 1.16138 16.9263 1.83295 16.9263 2.66138V20.6614C16.9263 21.4898 16.2548 22.1614 15.4263 22.1614H2.42633C1.5979 22.1614 0.926331 21.4898 0.926331 20.6614V2.66138C0.926331 1.83295 1.5979 1.16138 2.42633 1.16138Z" fill="white" stroke="#75BD62"/>
<path d="M1.42633 3.66138C1.42633 2.55681 2.32176 1.66138 3.42633 1.66138H15.4263C16.5309 1.66138 17.4263 2.55681 17.4263 3.66138V19.6614C17.4263 20.7659 16.5309 21.6614 15.4263 21.6614H3.42633C2.32176 21.6614 1.42633 20.7659 1.42633 19.6614V3.66138Z" fill="white"/>
<path d="M2.42633 1.16138H15.4263C16.2548 1.16138 16.9263 1.83295 16.9263 2.66138V18.6614C16.9263 19.4898 16.2548 20.1614 15.4263 20.1614H2.42633C1.5979 20.1614 0.926331 19.4898 0.926331 18.6614V2.66138C0.926331 1.83295 1.5979 1.16138 2.42633 1.16138Z" fill="white" stroke="#75BD62"/>
<rect x="5.42633" y="3.66138" width="8" height="1" rx="0.5" fill="#75BD62"/>
<rect x="15.4263" y="20.6614" width="2" height="1" fill="white"/>
<rect x="18.1263" y="19.6614" width="2" height="1" transform="rotate(90 18.1263 19.6614)" fill="white"/>
</svg>
