<svg width="32" height="32" viewBox="0 0 32 32" fill="none" xmlns="http://www.w3.org/2000/svg">
<path fill-rule="evenodd" clip-rule="evenodd" d="M9.5 5C8.39543 5 7.5 5.89543 7.5 7V23C7.5 24.1046 8.39543 25 9.5 25H22.5C23.6046 25 24.5 24.1046 24.5 23V7C24.5 5.89543 23.6046 5 22.5 5H9.5ZM13 8C12.7239 8 12.5 8.22386 12.5 8.5C12.5 8.77614 12.7239 9 13 9H20C20.2761 9 20.5 8.77614 20.5 8.5C20.5 8.22386 20.2761 8 20 8H13Z" fill="#75BD62"/>
<path d="M22.5 26H24.5C24.5 26.5523 24.0523 27 23.5 27H22.5V26Z" fill="#75BD62"/>
<path fill-rule="evenodd" clip-rule="evenodd" d="M9.5 6H22.5C23.0523 6 23.5 6.44772 23.5 7V23H24.5V7C24.5 5.89543 23.6046 5 22.5 5H9.5C8.39543 5 7.5 5.89543 7.5 7V25C7.5 26.1046 8.39543 27 9.5 27H22.5C23.2403 27 23.8866 26.5978 24.2324 26H22.5H21H9.5C8.94772 26 8.5 25.5523 8.5 25V7C8.5 6.44772 8.94771 6 9.5 6Z" fill="#75BD62"/>
</svg>
