<svg width="19" height="23" viewBox="0 0 19 23" fill="none" xmlns="http://www.w3.org/2000/svg">
<path d="M0.838013 2.66138C0.838013 1.83295 1.50959 1.16138 2.33801 1.16138H15.338C16.1664 1.16138 16.838 1.83295 16.838 2.66138V20.6614C16.838 21.4898 16.1664 22.1614 15.338 22.1614H2.33801C1.50959 22.1614 0.838013 21.4898 0.838013 20.6614V2.66138Z" fill="white" stroke="#75BD62"/>
<path d="M1.33801 3.66138C1.33801 2.55681 2.23344 1.66138 3.33801 1.66138H15.338C16.4426 1.66138 17.338 2.55681 17.338 3.66138V19.6614C17.338 20.7659 16.4426 21.6614 15.338 21.6614H3.33801C2.23344 21.6614 1.33801 20.7659 1.33801 19.6614V3.66138Z" fill="white"/>
<path d="M0.838013 2.66138C0.838013 1.83295 1.50959 1.16138 2.33801 1.16138H15.338C16.1664 1.16138 16.838 1.83295 16.838 2.66138V18.6614C16.838 19.4898 16.1664 20.1614 15.338 20.1614H2.33801C1.50959 20.1614 0.838013 19.4898 0.838013 18.6614V2.66138Z" fill="#75BD62" stroke="#75BD62"/>
<rect x="5.33801" y="3.66138" width="8" height="1" rx="0.5" fill="white"/>
<rect x="15.338" y="20.6614" width="2" height="1" fill="white"/>
<rect x="18.038" y="19.6614" width="2" height="1" transform="rotate(90 18.038 19.6614)" fill="white"/>
</svg>
