<svg width="40" height="40" viewBox="0 0 40 40" fill="none" xmlns="http://www.w3.org/2000/svg">
<circle cx="20" cy="20" r="20" fill="#EBF7E8"/>
<path fill-rule="evenodd" clip-rule="evenodd" d="M27 9C27 9.55228 26.5523 10 26 10H15C13.8954 10 13 10.8954 13 12V28C13 29.1046 13.8954 30 15 30H26C26.5523 30 27 30.4477 27 31C27 31.5523 26.5523 32 26 32H13C11.8954 32 11 31.1046 11 30V10C11 8.89543 11.8954 8 13 8H26C26.5523 8 27 8.44772 27 9Z" fill="#7BAB6E"/>
<path fill-rule="evenodd" clip-rule="evenodd" d="M23.9497 14.707C24.3403 14.3164 24.9734 14.3164 25.364 14.707L29.6066 18.9496C29.9971 19.3401 29.9971 19.9733 29.6066 20.3638L25.364 24.6065C24.9734 24.997 24.3403 24.997 23.9497 24.6065C23.5592 24.2159 23.5592 23.5828 23.9497 23.1922L26.142 21H16C15.4477 21 15 20.5523 15 20C15 19.4477 15.4477 19 16 19H26.8286L23.9497 16.1212C23.5592 15.7306 23.5592 15.0975 23.9497 14.707Z" fill="#7BAB6E"/>
</svg>
