<svg width="32" height="32" viewBox="0 0 32 32" fill="none" xmlns="http://www.w3.org/2000/svg">
<path d="M6.5 12C6.5 11.7239 6.72386 11.5 7 11.5H25C25.2761 11.5 25.5 11.7239 25.5 12V24C25.5 24.8284 24.8284 25.5 24 25.5H8C7.17157 25.5 6.5 24.8284 6.5 24V12Z" stroke="#75BD62"/>
<rect x="12" y="14" width="8" height="1" rx="0.5" fill="#75BD62"/>
<path d="M5.5 11C5.5 11.2761 5.72386 11.5 6 11.5H26C26.2761 11.5 26.5 11.2761 26.5 11V8C26.5 7.17157 25.8284 6.5 25 6.5H7C6.17157 6.5 5.5 7.17157 5.5 8V11Z" stroke="#75BD62"/>
</svg>
