<svg width="32" height="32" viewBox="0 0 32 32" fill="none" xmlns="http://www.w3.org/2000/svg">
<mask id="path-1-inside-1_498_508" fill="white">
<path fill-rule="evenodd" clip-rule="evenodd" d="M6.99988 11.9999C6.44759 11.9999 5.99988 12.4477 5.99988 12.9999V24.9999C5.99988 26.1045 6.89531 26.9999 7.99988 26.9999H23.9999C25.1044 26.9999 25.9999 26.1045 25.9999 24.9999V12.9999C25.9999 12.4477 25.5522 11.9999 24.9999 11.9999H6.99988ZM12.4999 14.9999C12.2237 14.9999 11.9999 15.2238 11.9999 15.4999C11.9999 15.7761 12.2237 15.9999 12.4999 15.9999H19.4999C19.776 15.9999 19.9999 15.7761 19.9999 15.4999C19.9999 15.2238 19.776 14.9999 19.4999 14.9999H12.4999Z"/>
</mask>
<path fill-rule="evenodd" clip-rule="evenodd" d="M6.99988 11.9999C6.44759 11.9999 5.99988 12.4477 5.99988 12.9999V24.9999C5.99988 26.1045 6.89531 26.9999 7.99988 26.9999H23.9999C25.1044 26.9999 25.9999 26.1045 25.9999 24.9999V12.9999C25.9999 12.4477 25.5522 11.9999 24.9999 11.9999H6.99988ZM12.4999 14.9999C12.2237 14.9999 11.9999 15.2238 11.9999 15.4999C11.9999 15.7761 12.2237 15.9999 12.4999 15.9999H19.4999C19.776 15.9999 19.9999 15.7761 19.9999 15.4999C19.9999 15.2238 19.776 14.9999 19.4999 14.9999H12.4999Z" fill="#75BD62"/>
<path d="M6.99988 12.9999V12.9999V10.9999C5.89531 10.9999 4.99988 11.8954 4.99988 12.9999H6.99988ZM6.99988 24.9999V12.9999H4.99988V24.9999H6.99988ZM7.99988 25.9999C7.44759 25.9999 6.99988 25.5522 6.99988 24.9999H4.99988C4.99988 26.6568 6.34302 27.9999 7.99988 27.9999V25.9999ZM23.9999 25.9999H7.99988V27.9999H23.9999V25.9999ZM24.9999 24.9999C24.9999 25.5522 24.5522 25.9999 23.9999 25.9999V27.9999C25.6567 27.9999 26.9999 26.6568 26.9999 24.9999H24.9999ZM24.9999 12.9999V24.9999H26.9999V12.9999H24.9999ZM24.9999 12.9999H26.9999C26.9999 11.8954 26.1044 10.9999 24.9999 10.9999V12.9999ZM6.99988 12.9999H24.9999V10.9999H6.99988V12.9999ZM12.9999 15.4999C12.9999 15.7761 12.776 15.9999 12.4999 15.9999V13.9999C11.6715 13.9999 10.9999 14.6715 10.9999 15.4999H12.9999ZM12.4999 14.9999C12.776 14.9999 12.9999 15.2238 12.9999 15.4999H10.9999C10.9999 16.3284 11.6715 16.9999 12.4999 16.9999V14.9999ZM19.4999 14.9999H12.4999V16.9999H19.4999V14.9999ZM18.9999 15.4999C18.9999 15.2238 19.2237 14.9999 19.4999 14.9999V16.9999C20.3283 16.9999 20.9999 16.3284 20.9999 15.4999H18.9999ZM19.4999 15.9999C19.2237 15.9999 18.9999 15.7761 18.9999 15.4999H20.9999C20.9999 14.6715 20.3283 13.9999 19.4999 13.9999V15.9999ZM12.4999 15.9999H19.4999V13.9999H12.4999V15.9999Z" fill="#75BD62" mask="url(#path-1-inside-1_498_508)"/>
<path d="M4.86755 8.9848L26.7838 10.9022L27.0453 7.91364C27.0934 7.36346 26.6864 6.87843 26.1363 6.83029L6.21237 5.08718C5.66219 5.03904 5.17716 5.44603 5.12902 5.99622L4.86755 8.9848Z" fill="#75BD62"/>
</svg>
