<svg width="23" height="21" viewBox="0 0 23 21" fill="none" xmlns="http://www.w3.org/2000/svg">
<path d="M2.238 6.16138H20.238C20.5141 6.16138 20.738 6.38523 20.738 6.66138V18.6614C20.738 19.4898 20.0664 20.1614 19.238 20.1614H3.238C2.40957 20.1614 1.738 19.4898 1.738 18.6614V6.66138C1.738 6.38523 1.96186 6.16138 2.238 6.16138Z" stroke="#75BD62"/>
<rect x="7.238" y="8.66138" width="8" height="1" rx="0.5" fill="#75BD62"/>
<path d="M1.238 6.16138H21.238C21.5141 6.16138 21.738 5.93752 21.738 5.66138V2.66138C21.738 1.83295 21.0664 1.16138 20.238 1.16138H2.238C1.40957 1.16138 0.737999 1.83295 0.737999 2.66138V5.66138C0.737999 5.93752 0.961857 6.16138 1.238 6.16138Z" stroke="#75BD62"/>
</svg>
