<svg width="24" height="24" viewBox="0 0 24 24" fill="none" xmlns="http://www.w3.org/2000/svg">
<mask id="path-1-inside-1_474_2745" fill="white">
<path fill-rule="evenodd" clip-rule="evenodd" d="M13.0568 0.460809C12.4862 -0.153603 11.5138 -0.153603 10.9433 0.460809L1.25024 10.8995C0.393447 11.8222 1.04782 13.3228 2.30698 13.3228H3.00016C3.55245 13.3228 4.00016 13.7705 4.00016 14.3228V21.8807C4.00016 22.6771 4.6458 23.3228 5.44222 23.3228H9.00016C9.55245 23.3228 10.0002 22.875 10.0002 22.3228V19.3228C10.0002 18.2182 10.8956 17.3228 12.0002 17.3228C13.1047 17.3228 14.0002 18.2182 14.0002 19.3228V22.3228C14.0002 22.875 14.4479 23.3228 15.0002 23.3228H18.5581C19.3545 23.3228 20.0002 22.6771 20.0002 21.8807V14.3228C20.0002 13.7705 20.4479 13.3228 21.0002 13.3228H21.6931C22.9522 13.3228 23.6066 11.8222 22.7498 10.8995L13.0568 0.460809Z"/>
</mask>
<path d="M10.9433 0.460809L11.6761 1.14126V1.14126L10.9433 0.460809ZM13.0568 0.460809L12.324 1.14126V1.14126L13.0568 0.460809ZM1.25024 10.8995L1.98304 11.5799L1.25024 10.8995ZM22.7498 10.8995L23.4826 10.219V10.219L22.7498 10.8995ZM11.6761 1.14126C11.851 0.952913 12.1491 0.952914 12.324 1.14126L13.7895 -0.219642C12.8234 -1.26012 11.1767 -1.26012 10.2105 -0.219641L11.6761 1.14126ZM1.98304 11.5799L11.6761 1.14126L10.2105 -0.219642L0.517449 10.219L1.98304 11.5799ZM2.30698 12.3228C1.92098 12.3228 1.72039 11.8628 1.98304 11.5799L0.517449 10.219C-0.933493 11.7816 0.174656 14.3228 2.30698 14.3228V12.3228ZM3.00016 12.3228H2.30698V14.3228H3.00016V12.3228ZM3.00016 14.3228V21.8807H5.00016V14.3228H3.00016ZM3.00016 21.8807C3.00016 23.2294 4.09351 24.3228 5.44222 24.3228V22.3228C5.19808 22.3228 5.00016 22.1248 5.00016 21.8807H3.00016ZM5.44222 24.3228H9.00016V22.3228H5.44222V24.3228ZM11.0002 22.3228V19.3228H9.00016V22.3228H11.0002ZM11.0002 19.3228C11.0002 18.7705 11.4479 18.3228 12.0002 18.3228V16.3228C10.3433 16.3228 9.00016 17.6659 9.00016 19.3228H11.0002ZM12.0002 18.3228C12.5524 18.3228 13.0002 18.7705 13.0002 19.3228H15.0002C15.0002 17.6659 13.657 16.3228 12.0002 16.3228V18.3228ZM13.0002 19.3228V22.3228H15.0002V19.3228H13.0002ZM15.0002 24.3228H18.5581V22.3228H15.0002V24.3228ZM18.5581 24.3228C19.9068 24.3228 21.0002 23.2294 21.0002 21.8807H19.0002C19.0002 22.1248 18.8022 22.3228 18.5581 22.3228V24.3228ZM21.0002 21.8807V14.3228H19.0002V21.8807H21.0002ZM21.6931 12.3228H21.0002V14.3228H21.6931V12.3228ZM22.017 11.5799C22.2797 11.8628 22.0791 12.3228 21.6931 12.3228V14.3228C23.8254 14.3228 24.9335 11.7816 23.4826 10.219L22.017 11.5799ZM12.324 1.14126L22.017 11.5799L23.4826 10.219L13.7895 -0.219642L12.324 1.14126ZM13.0002 22.3228C13.0002 23.4273 13.8956 24.3228 15.0002 24.3228V22.3228H13.0002ZM9.00016 24.3228C10.1047 24.3228 11.0002 23.4273 11.0002 22.3228H9.00016V24.3228ZM21.0002 14.3228V12.3228C19.8956 12.3228 19.0002 13.2182 19.0002 14.3228H21.0002ZM3.00016 14.3228H3.00016H5.00016C5.00016 13.2182 4.10473 12.3228 3.00016 12.3228V14.3228Z" fill="#75BD62" mask="url(#path-1-inside-1_474_2745)"/>
</svg>
