<svg width="24" height="24" viewBox="0 0 24 24" fill="none" xmlns="http://www.w3.org/2000/svg">
<path fill-rule="evenodd" clip-rule="evenodd" d="M13.0568 0.460809C12.4862 -0.153603 11.5138 -0.153603 10.9433 0.460809L1.25024 10.8995C0.393447 11.8222 1.04782 13.3228 2.30698 13.3228H3.00016C3.55245 13.3228 4.00016 13.7705 4.00016 14.3228V21.8807C4.00016 22.6771 4.6458 23.3228 5.44222 23.3228H9.00016C9.55245 23.3228 10.0002 22.8751 10.0002 22.3228V19.3228C10.0002 18.2182 10.8956 17.3228 12.0002 17.3228C13.1047 17.3228 14.0002 18.2182 14.0002 19.3228V22.3228C14.0002 22.8751 14.4479 23.3228 15.0002 23.3228H18.5581C19.3545 23.3228 20.0002 22.6771 20.0002 21.8807V14.3228C20.0002 13.7705 20.4479 13.3228 21.0002 13.3228H21.6931C22.9522 13.3228 23.6066 11.8222 22.7498 10.8995L13.0568 0.460809Z" fill="#75BD62"/>
</svg>
