<svg width="32" height="32" viewBox="0 0 32 32" fill="none" xmlns="http://www.w3.org/2000/svg">
<path fill-rule="evenodd" clip-rule="evenodd" d="M17.0568 4.79943C16.4862 4.18502 15.5138 4.18502 14.9433 4.79943L5.25024 15.2381C4.39345 16.1608 5.04782 17.6614 6.30698 17.6614H7.00016C7.55245 17.6614 8.00016 18.1091 8.00016 18.6614V26.2193C8.00016 27.0158 8.6458 27.6614 9.44222 27.6614H13.0002C13.5524 27.6614 14.0002 27.2137 14.0002 26.6614V23.6614C14.0002 22.5568 14.8956 21.6614 16.0002 21.6614C17.1047 21.6614 18.0002 22.5568 18.0002 23.6614V26.6614C18.0002 27.2137 18.4479 27.6614 19.0002 27.6614H22.5581C23.3545 27.6614 24.0002 27.0158 24.0002 26.2193V18.6614C24.0002 18.1091 24.4479 17.6614 25.0002 17.6614H25.6931C26.9522 17.6614 27.6066 16.1608 26.7498 15.2381L17.0568 4.79943Z" fill="#75BD62"/>
</svg>
