<svg width="32" height="32" viewBox="0 0 32 32" fill="none" xmlns="http://www.w3.org/2000/svg">
<mask id="path-1-inside-1_1249_1151" fill="white">
<path fill-rule="evenodd" clip-rule="evenodd" d="M17.0568 4.79943C16.4862 4.18502 15.5138 4.18502 14.9433 4.79943L5.25024 15.2381C4.39345 16.1608 5.04782 17.6614 6.30698 17.6614H7.00016C7.55245 17.6614 8.00016 18.1091 8.00016 18.6614V26.2193C8.00016 27.0158 8.6458 27.6614 9.44222 27.6614H13.0002C13.5524 27.6614 14.0002 27.2137 14.0002 26.6614V23.6614C14.0002 22.5568 14.8956 21.6614 16.0002 21.6614C17.1047 21.6614 18.0002 22.5568 18.0002 23.6614V26.6614C18.0002 27.2137 18.4479 27.6614 19.0002 27.6614H22.5581C23.3545 27.6614 24.0002 27.0158 24.0002 26.2193V18.6614C24.0002 18.1091 24.4479 17.6614 25.0002 17.6614H25.6931C26.9522 17.6614 27.6066 16.1608 26.7498 15.2381L17.0568 4.79943Z"/>
</mask>
<path d="M14.9433 4.79943L15.6761 5.47988V5.47988L14.9433 4.79943ZM17.0568 4.79943L16.324 5.47988V5.47988L17.0568 4.79943ZM5.25024 15.2381L5.98304 15.9185L5.25024 15.2381ZM26.7498 15.2381L27.4826 14.5576V14.5576L26.7498 15.2381ZM15.6761 5.47988C15.851 5.29154 16.1491 5.29154 16.324 5.47988L17.7895 4.11898C16.8234 3.0785 15.1767 3.0785 14.2105 4.11898L15.6761 5.47988ZM5.98304 15.9185L15.6761 5.47988L14.2105 4.11898L4.51745 14.5576L5.98304 15.9185ZM6.30698 16.6614C5.92098 16.6614 5.72039 16.2014 5.98304 15.9185L4.51745 14.5576C3.06651 16.1202 4.17466 18.6614 6.30698 18.6614V16.6614ZM7.00016 16.6614H6.30698V18.6614H7.00016V16.6614ZM7.00016 18.6614V26.2193H9.00016V18.6614H7.00016ZM7.00016 26.2193C7.00016 27.568 8.09351 28.6614 9.44222 28.6614V26.6614C9.19808 26.6614 9.00016 26.4635 9.00016 26.2193H7.00016ZM9.44222 28.6614H13.0002V26.6614H9.44222V28.6614ZM15.0002 26.6614V23.6614H13.0002V26.6614H15.0002ZM15.0002 23.6614C15.0002 23.1091 15.4479 22.6614 16.0002 22.6614V20.6614C14.3433 20.6614 13.0002 22.0045 13.0002 23.6614H15.0002ZM16.0002 22.6614C16.5524 22.6614 17.0002 23.1091 17.0002 23.6614H19.0002C19.0002 22.0045 17.657 20.6614 16.0002 20.6614V22.6614ZM17.0002 23.6614V26.6614H19.0002V23.6614H17.0002ZM19.0002 28.6614H22.5581V26.6614H19.0002V28.6614ZM22.5581 28.6614C23.9068 28.6614 25.0002 27.568 25.0002 26.2193H23.0002C23.0002 26.4635 22.8022 26.6614 22.5581 26.6614V28.6614ZM25.0002 26.2193V18.6614H23.0002V26.2193H25.0002ZM25.6931 16.6614H25.0002V18.6614H25.6931V16.6614ZM26.017 15.9185C26.2797 16.2014 26.0791 16.6614 25.6931 16.6614V18.6614C27.8254 18.6614 28.9335 16.1202 27.4826 14.5576L26.017 15.9185ZM16.324 5.47988L26.017 15.9185L27.4826 14.5576L17.7895 4.11898L16.324 5.47988ZM17.0002 26.6614C17.0002 27.766 17.8956 28.6614 19.0002 28.6614V26.6614H17.0002ZM13.0002 28.6614C14.1047 28.6614 15.0002 27.766 15.0002 26.6614H13.0002V28.6614ZM25.0002 18.6614V16.6614C23.8956 16.6614 23.0002 17.5568 23.0002 18.6614H25.0002ZM7.00016 18.6614H7.00016H9.00016C9.00016 17.5568 8.10473 16.6614 7.00016 16.6614V18.6614Z" fill="#75BD62" mask="url(#path-1-inside-1_1249_1151)"/>
</svg>
