<svg width="40" height="40" viewBox="0 0 40 40" fill="none" xmlns="http://www.w3.org/2000/svg">
<circle cx="20" cy="20" r="20" fill="#EBF7E8"/>
<rect x="12.5" y="8.5" width="15" height="23" rx="2.5" fill="white" stroke="#75BD62"/>
<path d="M23.2029 26.2335C22.8575 26.4329 22.4274 26.4083 22.1133 26.1624C20.9819 25.2769 18.3264 23.1012 17.4019 21.4998C16.4773 19.8984 15.9208 16.5108 15.7197 15.0883C15.6638 14.6934 15.8575 14.3086 16.2029 14.1091L17.9888 13.078C18.5522 12.7528 19.2713 13.0436 19.4503 13.669L20.1343 16.0604C20.1975 16.2812 20.1827 16.517 20.0925 16.7283L19.3154 18.5475C18.7916 19.7737 19.5916 21.1593 20.9154 21.3188L22.8795 21.5554C23.1075 21.5829 23.3191 21.688 23.4788 21.8531L25.2077 23.6413C25.6599 24.109 25.5522 24.8771 24.9888 25.2024L23.2029 26.2335Z" fill="#75BD62"/>
</svg>
