<svg width="20" height="22" viewBox="0 0 20 22" fill="none" xmlns="http://www.w3.org/2000/svg">
<mask id="path-1-inside-1_292_183" fill="white">
<path fill-rule="evenodd" clip-rule="evenodd" d="M7.79186 0.827136C7.52634 1.07414 7.26096 1.49909 6.73021 2.34898C6.53484 2.66182 6.43715 2.81824 6.3268 2.95321C5.90396 3.4704 5.30669 3.81524 4.64737 3.92283C4.47531 3.95091 4.291 3.9573 3.92239 3.97007C2.92098 4.00478 2.42028 4.02213 2.07361 4.12857C0.700747 4.55009 -0.113469 5.96035 0.207916 7.36004C0.289072 7.71349 0.524397 8.15579 0.995047 9.04038C1.16829 9.366 1.25491 9.5288 1.31662 9.69186C1.5531 10.3166 1.5531 11.0063 1.31662 11.6311C1.25491 11.7941 1.16829 11.957 0.995046 12.2826C0.524397 13.1672 0.289072 13.6095 0.207916 13.9629C-0.113469 15.3626 0.700747 16.7729 2.07361 17.1944C2.42028 17.3008 2.92098 17.3182 3.92239 17.3529C4.291 17.3657 4.47531 17.372 4.64737 17.4001C5.30669 17.5077 5.90396 17.8525 6.3268 18.3697C6.43715 18.5047 6.53483 18.6611 6.73019 18.9739L6.73021 18.974C7.26096 19.8239 7.52634 20.2488 7.79186 20.4958C8.84333 21.474 10.4718 21.474 11.5232 20.4958C11.7888 20.2488 12.0541 19.8239 12.5849 18.974L12.5849 18.974C12.7803 18.6611 12.8779 18.5047 12.9883 18.3697C13.4111 17.8525 14.0084 17.5077 14.6677 17.4001C14.8398 17.372 15.0241 17.3657 15.3927 17.3529C16.3941 17.3182 16.8948 17.3008 17.2415 17.1944C18.6144 16.7729 19.4286 15.3626 19.1072 13.9629C19.026 13.6095 18.7907 13.1672 18.3201 12.2826C18.1468 11.957 18.0602 11.7942 17.9985 11.6311C17.762 11.0063 17.762 10.3166 17.9985 9.69185C18.0602 9.5288 18.1468 9.366 18.3201 9.04038C18.7907 8.15579 19.026 7.71349 19.1072 7.36004C19.4286 5.96035 18.6144 4.55009 17.2415 4.12857C16.8948 4.02213 16.3941 4.00478 15.3927 3.97007C15.0241 3.9573 14.8398 3.95091 14.6677 3.92283C14.0084 3.81524 13.4111 3.4704 12.9883 2.95321C12.8779 2.81824 12.7803 2.66183 12.5849 2.34901L12.5849 2.34898L12.5849 2.34897C12.0541 1.49909 11.7888 1.07414 11.5232 0.827136C10.4718 -0.151037 8.84333 -0.151037 7.79186 0.827136ZM9.65762 14.6614C11.8668 14.6614 13.6576 12.8706 13.6576 10.6614C13.6576 8.4523 11.8668 6.66144 9.65762 6.66144C7.44848 6.66144 5.65762 8.4523 5.65762 10.6614C5.65762 12.8706 7.44848 14.6614 9.65762 14.6614Z"/>
</mask>
<path d="M6.73021 2.34898L5.88202 1.81929L5.88202 1.81929L6.73021 2.34898ZM7.79186 0.827136L7.11073 0.0949692V0.0949693L7.79186 0.827136ZM6.3268 2.95321L5.55262 2.32026L5.55262 2.32026L6.3268 2.95321ZM4.64737 3.92283L4.80843 4.90978L4.80843 4.90978L4.64737 3.92283ZM3.92239 3.97007L3.95702 4.96947H3.95703L3.92239 3.97007ZM2.07361 4.12857L1.78009 3.17261H1.78009L2.07361 4.12857ZM0.207916 7.36004L-0.766722 7.58383L0.207916 7.36004ZM0.995047 9.04038L1.87787 8.57068H1.87787L0.995047 9.04038ZM1.31662 9.69186L2.25187 9.33787L1.31662 9.69186ZM1.31662 11.6311L2.25187 11.9851L1.31662 11.6311ZM0.995046 12.2826L0.112224 11.8129H0.112224L0.995046 12.2826ZM0.207916 13.9629L1.18255 14.1867H1.18255L0.207916 13.9629ZM2.07361 17.1944L1.78009 18.1503H1.78009L2.07361 17.1944ZM3.92239 17.3529L3.88776 18.3523H3.88776L3.92239 17.3529ZM4.64737 17.4001L4.48631 18.3871H4.48631L4.64737 17.4001ZM6.3268 18.3697L7.10099 17.7368L7.10099 17.7368L6.3268 18.3697ZM6.73019 18.9739L5.882 19.5036L5.8868 19.5113L5.89174 19.5189L6.73019 18.9739ZM6.73021 18.974L7.5784 18.4443L7.57359 18.4366L7.56865 18.429L6.73021 18.974ZM7.79186 20.4958L8.47298 19.7636L7.79186 20.4958ZM11.5232 20.4958L10.8421 19.7636L11.5232 20.4958ZM12.5849 18.974L11.7849 18.374L11.7593 18.4081L11.7367 18.4443L12.5849 18.974ZM12.5849 18.974L13.3849 19.574L13.4105 19.5398L13.4331 19.5036L12.5849 18.974ZM12.9883 18.3697L12.2141 17.7368L12.2141 17.7368L12.9883 18.3697ZM14.6677 17.4001L14.8288 18.3871H14.8288L14.6677 17.4001ZM15.3927 17.3529L15.4273 18.3523L15.3927 17.3529ZM17.2415 17.1944L16.948 16.2384L17.2415 17.1944ZM19.1072 13.9629L18.1325 14.1867V14.1867L19.1072 13.9629ZM18.3201 12.2826L19.2029 11.8129L18.3201 12.2826ZM17.9985 11.6311L17.0632 11.9851L17.0632 11.9851L17.9985 11.6311ZM17.9985 9.69185L17.0632 9.33786L17.0632 9.33787L17.9985 9.69185ZM18.3201 9.04038L19.2029 9.51009V9.51009L18.3201 9.04038ZM19.1072 7.36004L18.1325 7.13625V7.13626L19.1072 7.36004ZM17.2415 4.12857L16.948 5.08452L16.948 5.08453L17.2415 4.12857ZM15.3927 3.97007L15.3581 4.96947L15.3927 3.97007ZM14.6677 3.92283L14.5067 4.90978H14.5067L14.6677 3.92283ZM12.9883 2.95321L13.7625 2.32026L13.7625 2.32026L12.9883 2.95321ZM12.5849 2.34901L13.4331 1.8193L13.4286 1.81214L12.5849 2.34901ZM12.5849 2.34898L11.7167 2.84512L11.7285 2.86578L11.7412 2.88586L12.5849 2.34898ZM12.5849 2.34897L13.4531 1.85283L13.4434 1.83586L13.4331 1.81928L12.5849 2.34897ZM11.5232 0.827136L10.8421 1.5593L10.8421 1.5593L11.5232 0.827136ZM7.57839 2.87867C7.84818 2.44668 8.03487 2.14809 8.18679 1.92522C8.33989 1.70061 8.42279 1.60599 8.47298 1.5593L7.11073 0.0949693C6.89541 0.295285 6.71286 0.536647 6.5342 0.798735C6.35437 1.06256 6.14299 1.40139 5.88202 1.81929L7.57839 2.87867ZM7.10099 3.58617C7.26114 3.39029 7.39696 3.16921 7.5784 2.87867L5.88202 1.81929C5.67272 2.15443 5.61317 2.24619 5.55262 2.32026L7.10099 3.58617ZM4.80843 4.90978C5.70846 4.7629 6.52378 4.29217 7.10099 3.58617L5.55262 2.32026C5.28415 2.64863 4.90493 2.86757 4.48631 2.93589L4.80843 4.90978ZM3.95703 4.96947C4.29935 4.95761 4.55872 4.95053 4.80843 4.90978L4.48631 2.93589C4.39189 2.9513 4.28265 2.95699 3.88776 2.97067L3.95703 4.96947ZM2.36712 5.08453C2.43265 5.0644 2.55604 5.03992 2.82711 5.01963C3.09609 4.9995 3.44801 4.98711 3.95702 4.96947L3.88776 2.97067C3.39536 2.98774 2.99623 3.00138 2.67784 3.02521C2.36154 3.04888 2.06124 3.08629 1.78009 3.17261L2.36712 5.08453ZM1.18255 7.13625C0.9785 6.24756 1.49546 5.35215 2.36712 5.08452L1.78009 3.17261C-0.0939685 3.74802 -1.20544 5.67314 -0.766722 7.58383L1.18255 7.13625ZM1.87787 8.57068C1.63864 8.12104 1.4734 7.81007 1.35635 7.56706C1.23838 7.32217 1.19789 7.20307 1.18255 7.13625L-0.766722 7.58383C-0.700907 7.87047 -0.583156 8.14924 -0.445507 8.435C-0.306947 8.72265 -0.119197 9.07513 0.112224 9.51009L1.87787 8.57068ZM2.25187 9.33787C2.16231 9.10124 2.03876 8.87307 1.87787 8.57068L0.112224 9.51009C0.297818 9.85892 0.347509 9.95637 0.381375 10.0458L2.25187 9.33787ZM2.25187 11.9851C2.57469 11.1322 2.57469 10.1907 2.25187 9.33787L0.381375 10.0458C0.531521 10.4425 0.531521 10.8804 0.381375 11.2771L2.25187 11.9851ZM1.87787 12.7523C2.03876 12.4499 2.16231 12.2217 2.25187 11.9851L0.381375 11.2771C0.347509 11.3666 0.297818 11.464 0.112224 11.8129L1.87787 12.7523ZM1.18255 14.1867C1.1979 14.1199 1.23838 14.0008 1.35635 13.7559C1.4734 13.5129 1.63864 13.2019 1.87787 12.7523L0.112224 11.8129C-0.119197 12.2478 -0.306947 12.6003 -0.445507 12.8879C-0.583155 13.1737 -0.700907 13.4525 -0.766722 13.7391L1.18255 14.1867ZM2.36712 16.2384C1.49546 15.9708 0.9785 15.0754 1.18255 14.1867L-0.766721 13.7391C-1.20544 15.6498 -0.0939674 17.5749 1.78009 18.1503L2.36712 16.2384ZM3.95702 16.3535C3.44801 16.3358 3.09609 16.3235 2.82711 16.3033C2.55604 16.283 2.43265 16.2585 2.36712 16.2384L1.78009 18.1503C2.06124 18.2367 2.36154 18.2741 2.67784 18.2977C2.99623 18.3216 3.39536 18.3352 3.88776 18.3523L3.95702 16.3535ZM4.80843 16.4132C4.55872 16.3724 4.29936 16.3653 3.95702 16.3535L3.88776 18.3523C4.28265 18.366 4.39189 18.3717 4.48631 18.3871L4.80843 16.4132ZM7.10099 17.7368C6.52378 17.0308 5.70846 16.56 4.80843 16.4132L4.48631 18.3871C4.90493 18.4554 5.28415 18.6743 5.55262 19.0027L7.10099 17.7368ZM7.57838 18.4442C7.39695 18.1537 7.26114 17.9327 7.10099 17.7368L5.55262 19.0027C5.61317 19.0768 5.67272 19.1685 5.882 19.5036L7.57838 18.4442ZM7.56865 18.429L7.56863 18.429L5.89174 19.5189L5.89176 19.519L7.56865 18.429ZM8.47298 19.7636C8.42279 19.717 8.33989 19.6223 8.18679 19.3977C8.03487 19.1749 7.84818 18.8763 7.5784 18.4443L5.88202 19.5037C6.14299 19.9216 6.35437 20.2604 6.5342 20.5242C6.71286 20.7863 6.89541 21.0277 7.11073 21.228L8.47298 19.7636ZM10.8421 19.7636C10.1745 20.3847 9.14059 20.3847 8.47298 19.7636L7.11073 21.228C8.54608 22.5633 10.769 22.5633 12.2044 21.228L10.8421 19.7636ZM11.7367 18.4443C11.4669 18.8763 11.2802 19.1749 11.1283 19.3977C10.9752 19.6223 10.8923 19.717 10.8421 19.7636L12.2044 21.228C12.4197 21.0277 12.6022 20.7863 12.7809 20.5242C12.9607 20.2604 13.1721 19.9216 13.4331 19.5037L11.7367 18.4443ZM11.7849 18.374L11.7849 18.374L13.3849 19.574L13.3849 19.574L11.7849 18.374ZM12.2141 17.7368C12.054 17.9327 11.9181 18.1537 11.7367 18.4443L13.4331 19.5036C13.6424 19.1685 13.7019 19.0768 13.7625 19.0027L12.2141 17.7368ZM14.5067 16.4132C13.6066 16.56 12.7913 17.0308 12.2141 17.7368L13.7625 19.0027C14.031 18.6743 14.4102 18.4554 14.8288 18.3871L14.5067 16.4132ZM15.3581 16.3535C15.0157 16.3653 14.7564 16.3724 14.5067 16.4132L14.8288 18.3871C14.9232 18.3717 15.0325 18.366 15.4273 18.3523L15.3581 16.3535ZM16.948 16.2384C16.8824 16.2585 16.7591 16.283 16.488 16.3033C16.219 16.3235 15.8671 16.3358 15.3581 16.3535L15.4273 18.3523C15.9197 18.3352 16.3189 18.3216 16.6373 18.2977C16.9536 18.2741 17.2539 18.2367 17.535 18.1503L16.948 16.2384ZM18.1325 14.1867C18.3366 15.0754 17.8196 15.9708 16.948 16.2384L17.535 18.1503C19.4091 17.5749 20.5205 15.6498 20.0818 13.7391L18.1325 14.1867ZM17.4372 12.7523C17.6765 13.2019 17.8417 13.5129 17.9587 13.7559C18.0767 14.0008 18.1172 14.1199 18.1325 14.1867L20.0818 13.7391C20.016 13.4525 19.8983 13.1737 19.7606 12.8879C19.622 12.6003 19.4343 12.2478 19.2029 11.8129L17.4372 12.7523ZM17.0632 11.9851C17.1528 12.2217 17.2763 12.4499 17.4372 12.7523L19.2029 11.8129C19.0173 11.464 18.9676 11.3666 18.9337 11.2771L17.0632 11.9851ZM17.0632 9.33787C16.7404 10.1907 16.7404 11.1322 17.0632 11.9851L18.9337 11.2771C18.7836 10.8804 18.7836 10.4425 18.9337 10.0458L17.0632 9.33787ZM17.4372 8.57068C17.2763 8.87308 17.1528 9.10123 17.0632 9.33786L18.9337 10.0458C18.9676 9.95637 19.0173 9.85892 19.2029 9.51009L17.4372 8.57068ZM18.1325 7.13626C18.1172 7.20307 18.0767 7.32217 17.9587 7.56706C17.8417 7.81007 17.6765 8.12104 17.4372 8.57068L19.2029 9.51009C19.4343 9.07513 19.622 8.72265 19.7606 8.435C19.8983 8.14924 20.016 7.87047 20.0818 7.58383L18.1325 7.13626ZM16.948 5.08453C17.8196 5.35215 18.3366 6.24756 18.1325 7.13625L20.0818 7.58383C20.5205 5.67314 19.4091 3.74802 17.535 3.17261L16.948 5.08453ZM15.3581 4.96947C15.8671 4.98711 16.219 4.9995 16.488 5.01963C16.7591 5.03992 16.8824 5.0644 16.948 5.08452L17.535 3.17261C17.2539 3.08629 16.9536 3.04888 16.6373 3.02521C16.3189 3.00138 15.9197 2.98774 15.4273 2.97067L15.3581 4.96947ZM14.5067 4.90978C14.7564 4.95053 15.0157 4.95761 15.3581 4.96947L15.4273 2.97067C15.0325 2.95699 14.9232 2.9513 14.8288 2.93589L14.5067 4.90978ZM12.2141 3.58617C12.7913 4.29217 13.6066 4.7629 14.5067 4.90978L14.8288 2.93589C14.4102 2.86757 14.031 2.64863 13.7625 2.32026L12.2141 3.58617ZM11.7367 2.87871C11.9182 3.16922 12.054 3.39029 12.2141 3.58617L13.7625 2.32026C13.7019 2.24619 13.6424 2.15444 13.4331 1.81932L11.7367 2.87871ZM11.7412 2.88586L11.7413 2.88589L13.4286 1.81214L13.4286 1.81211L11.7412 2.88586ZM11.7166 2.84511L11.7167 2.84512L13.4531 1.85284L13.4531 1.85283L11.7166 2.84511ZM10.8421 1.5593C10.8923 1.606 10.9752 1.70061 11.1283 1.92522C11.2802 2.14809 11.4669 2.44667 11.7367 2.87867L13.4331 1.81928C13.1721 1.40138 12.9607 1.06255 12.7809 0.798732C12.6022 0.536645 12.4197 0.295284 12.2044 0.0949686L10.8421 1.5593ZM8.47298 1.5593C9.14059 0.93824 10.1745 0.93824 10.8421 1.5593L12.2044 0.0949692C10.769 -1.24032 8.54608 -1.24032 7.11073 0.0949692L8.47298 1.5593ZM12.6576 10.6614C12.6576 12.3183 11.3145 13.6614 9.65762 13.6614V15.6614C12.419 15.6614 14.6576 13.4229 14.6576 10.6614H12.6576ZM9.65762 7.66144C11.3145 7.66144 12.6576 9.00458 12.6576 10.6614H14.6576C14.6576 7.90001 12.419 5.66144 9.65762 5.66144V7.66144ZM6.65762 10.6614C6.65762 9.00458 8.00077 7.66144 9.65762 7.66144V5.66144C6.8962 5.66144 4.65762 7.90001 4.65762 10.6614H6.65762ZM9.65762 13.6614C8.00077 13.6614 6.65762 12.3183 6.65762 10.6614H4.65762C4.65762 13.4229 6.8962 15.6614 9.65762 15.6614V13.6614Z" fill="#75BD62" mask="url(#path-1-inside-1_292_183)"/>
</svg>
