<svg width="20" height="22" viewBox="0 0 20 22" fill="none" xmlns="http://www.w3.org/2000/svg">
<path fill-rule="evenodd" clip-rule="evenodd" d="M7.79186 0.827136C7.52634 1.07414 7.26096 1.49909 6.73021 2.34898C6.53484 2.66182 6.43715 2.81824 6.3268 2.95321C5.90396 3.4704 5.30669 3.81524 4.64737 3.92283C4.47531 3.95091 4.291 3.9573 3.92239 3.97007C2.92098 4.00478 2.42028 4.02213 2.07361 4.12857C0.700747 4.55009 -0.113469 5.96035 0.207916 7.36004C0.289072 7.71349 0.524397 8.15579 0.995047 9.04038C1.16829 9.366 1.25491 9.5288 1.31662 9.69186C1.5531 10.3166 1.5531 11.0063 1.31662 11.6311C1.25491 11.7941 1.16829 11.957 0.995046 12.2826C0.524397 13.1672 0.289072 13.6095 0.207916 13.9629C-0.113469 15.3626 0.700747 16.7729 2.07361 17.1944C2.42028 17.3008 2.92098 17.3182 3.92239 17.3529C4.291 17.3657 4.47531 17.372 4.64737 17.4001C5.30669 17.5077 5.90396 17.8525 6.3268 18.3697C6.43715 18.5047 6.53483 18.6611 6.73019 18.9739L6.73021 18.974C7.26096 19.8239 7.52634 20.2488 7.79186 20.4958C8.84333 21.474 10.4718 21.474 11.5232 20.4958C11.7888 20.2488 12.0541 19.8239 12.5849 18.974L12.5849 18.974C12.7803 18.6611 12.8779 18.5047 12.9883 18.3697C13.4111 17.8525 14.0084 17.5077 14.6677 17.4001C14.8398 17.372 15.0241 17.3657 15.3927 17.3529C16.3941 17.3182 16.8948 17.3008 17.2415 17.1944C18.6144 16.7729 19.4286 15.3626 19.1072 13.9629C19.026 13.6095 18.7907 13.1672 18.3201 12.2826C18.1468 11.957 18.0602 11.7942 17.9985 11.6311C17.762 11.0063 17.762 10.3166 17.9985 9.69185C18.0602 9.5288 18.1468 9.366 18.3201 9.04038C18.7907 8.15579 19.026 7.71349 19.1072 7.36004C19.4286 5.96035 18.6144 4.55009 17.2415 4.12857C16.8948 4.02213 16.3941 4.00478 15.3927 3.97007C15.0241 3.9573 14.8398 3.95091 14.6677 3.92283C14.0084 3.81524 13.4111 3.4704 12.9883 2.95321C12.8779 2.81824 12.7803 2.66183 12.5849 2.34901L12.5849 2.34898L12.5849 2.34897C12.0541 1.49909 11.7888 1.07414 11.5232 0.827136C10.4718 -0.151037 8.84333 -0.151037 7.79186 0.827136ZM9.65762 14.6614C11.8668 14.6614 13.6576 12.8706 13.6576 10.6614C13.6576 8.4523 11.8668 6.66144 9.65762 6.66144C7.44848 6.66144 5.65762 8.4523 5.65762 10.6614C5.65762 12.8706 7.44848 14.6614 9.65762 14.6614Z" fill="#75BD62"/>
</svg>
