<svg width="32" height="32" viewBox="0 0 32 32" fill="none" xmlns="http://www.w3.org/2000/svg">
<path fill-rule="evenodd" clip-rule="evenodd" d="M14.1344 6.16567C13.8688 6.41268 13.6035 6.83762 13.0727 7.68751C12.8773 8.00035 12.7797 8.15677 12.6693 8.29174C12.2465 8.80893 11.6492 9.15377 10.9899 9.26136C10.8178 9.28944 10.6335 9.29583 10.2649 9.30861C9.26348 9.34331 8.76278 9.36066 8.41611 9.4671C7.04325 9.88862 6.22903 11.2989 6.55041 12.6986C6.63157 13.052 6.8669 13.4943 7.33755 14.3789C7.51079 14.7045 7.59741 14.8673 7.65912 15.0304C7.8956 15.6552 7.8956 16.3448 7.65912 16.9696C7.59741 17.1327 7.51079 17.2955 7.33755 17.6211C6.8669 18.5057 6.63157 18.948 6.55042 19.3014C6.22903 20.7011 7.04325 22.1114 8.41611 22.5329C8.76278 22.6394 9.26348 22.6567 10.2649 22.6914C10.6335 22.7042 10.8178 22.7106 10.9899 22.7386C11.6492 22.8462 12.2465 23.1911 12.6693 23.7083C12.7797 23.8432 12.8773 23.9997 13.0727 24.3125L13.0727 24.3125C13.6035 25.1624 13.8688 25.5873 14.1344 25.8343C15.1858 26.8125 16.8143 26.8125 17.8657 25.8343C18.1313 25.5873 18.3966 25.1624 18.9274 24.3125L18.9274 24.3125C19.1228 23.9997 19.2204 23.8432 19.3308 23.7083C19.7536 23.1911 20.3509 22.8462 21.0102 22.7386C21.1823 22.7106 21.3666 22.7042 21.7352 22.6914C22.7366 22.6567 23.2373 22.6394 23.584 22.5329C24.9569 22.1114 25.7711 20.7011 25.4497 19.3014C25.3685 18.948 25.1332 18.5057 24.6626 17.6211C24.4893 17.2955 24.4027 17.1327 24.341 16.9696C24.1045 16.3448 24.1045 15.6552 24.341 15.0304C24.4027 14.8673 24.4893 14.7045 24.6626 14.3789C25.1332 13.4943 25.3685 13.052 25.4497 12.6986C25.7711 11.2989 24.9569 9.88862 23.584 9.4671C23.2373 9.36066 22.7366 9.34331 21.7352 9.30861C21.3666 9.29583 21.1823 9.28944 21.0102 9.26136C20.3509 9.15377 19.7536 8.80893 19.3308 8.29174C19.2204 8.15677 19.1228 8.00036 18.9274 7.68754L18.9274 7.68751L18.9274 7.6875C18.3966 6.83762 18.1313 6.41267 17.8657 6.16567C16.8143 5.18749 15.1858 5.18749 14.1344 6.16567ZM16.0001 20C18.2093 20 20.0001 18.2091 20.0001 16C20.0001 13.7908 18.2093 12 16.0001 12C13.791 12 12.0001 13.7908 12.0001 16C12.0001 18.2091 13.791 20 16.0001 20Z" fill="#75BD62"/>
</svg>
