<svg width="120" height="120" viewBox="0 0 120 120" fill="none" xmlns="http://www.w3.org/2000/svg">
<g id="Group 629">
<path id="Union" fill-rule="evenodd" clip-rule="evenodd" d="M70.6274 25.3726C83.1242 37.8694 83.1242 58.1306 70.6274 70.6274C58.1306 83.1242 37.8694 83.1242 25.3726 70.6274C12.8758 58.1306 12.8758 37.8694 25.3726 25.3726C37.8694 12.8758 58.1306 12.8758 70.6274 25.3726ZM78.9729 73.3164C91.8469 57.6043 90.9507 34.3822 76.2843 19.7157C60.6633 4.09476 35.3367 4.09476 19.7157 19.7157C4.09476 35.3367 4.09476 60.6633 19.7157 76.2843C34.3821 90.9506 57.604 91.8469 73.316 78.9732L104.568 110.226C106.131 111.788 108.663 111.788 110.225 110.226C111.787 108.664 111.787 106.131 110.225 104.569L78.9729 73.3164Z" fill="#CECECE"/>
</g>
</svg>
