<svg width="32" height="32" viewBox="0 0 32 32" fill="none" xmlns="http://www.w3.org/2000/svg">
<mask id="path-1-inside-1_498_513" fill="white">
<path fill-rule="evenodd" clip-rule="evenodd" d="M14.1344 6.16567C13.8688 6.41268 13.6035 6.83762 13.0727 7.68751C12.8773 8.00035 12.7797 8.15677 12.6693 8.29174C12.2465 8.80893 11.6492 9.15377 10.9899 9.26136C10.8178 9.28944 10.6335 9.29583 10.2649 9.30861C9.26348 9.34331 8.76278 9.36066 8.41611 9.4671C7.04325 9.88862 6.22903 11.2989 6.55041 12.6986C6.63157 13.052 6.8669 13.4943 7.33755 14.3789C7.51079 14.7045 7.59741 14.8673 7.65912 15.0304C7.8956 15.6552 7.8956 16.3448 7.65912 16.9696C7.59741 17.1327 7.51079 17.2955 7.33755 17.6211C6.8669 18.5057 6.63157 18.948 6.55042 19.3014C6.22903 20.7011 7.04325 22.1114 8.41611 22.5329C8.76278 22.6394 9.26348 22.6567 10.2649 22.6914C10.6335 22.7042 10.8178 22.7106 10.9899 22.7386C11.6492 22.8462 12.2465 23.1911 12.6693 23.7083C12.7797 23.8432 12.8773 23.9997 13.0727 24.3125L13.0727 24.3125C13.6035 25.1624 13.8688 25.5873 14.1344 25.8343C15.1858 26.8125 16.8143 26.8125 17.8657 25.8343C18.1313 25.5873 18.3966 25.1624 18.9274 24.3125L18.9274 24.3125C19.1228 23.9997 19.2204 23.8432 19.3308 23.7083C19.7536 23.1911 20.3509 22.8462 21.0102 22.7386C21.1823 22.7106 21.3666 22.7042 21.7352 22.6914C22.7366 22.6567 23.2373 22.6394 23.584 22.5329C24.9569 22.1114 25.7711 20.7011 25.4497 19.3014C25.3685 18.948 25.1332 18.5057 24.6626 17.6211C24.4893 17.2955 24.4027 17.1327 24.341 16.9696C24.1045 16.3448 24.1045 15.6552 24.341 15.0304C24.4027 14.8673 24.4893 14.7045 24.6626 14.3789C25.1332 13.4943 25.3685 13.052 25.4497 12.6986C25.7711 11.2989 24.9569 9.88862 23.584 9.4671C23.2373 9.36066 22.7366 9.34331 21.7352 9.30861C21.3666 9.29583 21.1823 9.28944 21.0102 9.26136C20.3509 9.15377 19.7536 8.80893 19.3308 8.29174C19.2204 8.15677 19.1228 8.00036 18.9274 7.68754L18.9274 7.68751L18.9274 7.6875C18.3966 6.83762 18.1313 6.41267 17.8657 6.16567C16.8143 5.18749 15.1858 5.18749 14.1344 6.16567ZM16.0001 20C18.2093 20 20.0001 18.2091 20.0001 16C20.0001 13.7908 18.2093 12 16.0001 12C13.791 12 12.0001 13.7908 12.0001 16C12.0001 18.2091 13.791 20 16.0001 20Z"/>
</mask>
<path d="M13.0727 7.68751L12.2245 7.15782L12.2245 7.15782L13.0727 7.68751ZM14.1344 6.16567L13.4532 5.4335V5.4335L14.1344 6.16567ZM12.6693 8.29174L11.8951 7.65879L11.8951 7.65879L12.6693 8.29174ZM10.9899 9.26136L11.1509 10.2483L11.1509 10.2483L10.9899 9.26136ZM10.2649 9.30861L10.2995 10.308H10.2995L10.2649 9.30861ZM8.41611 9.4671L8.12259 8.51115H8.12259L8.41611 9.4671ZM6.55041 12.6986L5.57578 12.9224L6.55041 12.6986ZM7.33755 14.3789L8.22037 13.9092H8.22037L7.33755 14.3789ZM7.65912 15.0304L8.59437 14.6764L7.65912 15.0304ZM7.65912 16.9696L8.59437 17.3236L7.65912 16.9696ZM7.33755 17.6211L6.45472 17.1514H6.45472L7.33755 17.6211ZM6.55042 19.3014L7.52505 19.5252H7.52505L6.55042 19.3014ZM8.41611 22.5329L8.12259 23.4889H8.12259L8.41611 22.5329ZM10.2649 22.6914L10.2303 23.6908H10.2303L10.2649 22.6914ZM10.9899 22.7386L10.8288 23.7256H10.8288L10.9899 22.7386ZM12.6693 23.7083L13.4435 23.0753L13.4435 23.0753L12.6693 23.7083ZM13.0727 24.3125L12.2245 24.8422L12.2293 24.8499L12.2342 24.8575L13.0727 24.3125ZM13.0727 24.3125L13.9209 23.7828L13.9161 23.7751L13.9111 23.7675L13.0727 24.3125ZM14.1344 25.8343L14.8155 25.1022L14.1344 25.8343ZM17.8657 25.8343L17.1846 25.1022L17.8657 25.8343ZM18.9274 24.3125L18.1274 23.7125L18.1018 23.7466L18.0792 23.7828L18.9274 24.3125ZM18.9274 24.3125L19.7274 24.9125L19.753 24.8784L19.7756 24.8422L18.9274 24.3125ZM19.3308 23.7083L18.5566 23.0753L18.5566 23.0753L19.3308 23.7083ZM21.0102 22.7386L21.1713 23.7256H21.1713L21.0102 22.7386ZM21.7352 22.6914L21.7698 23.6908L21.7352 22.6914ZM23.584 22.5329L23.2905 21.577L23.584 22.5329ZM25.4497 19.3014L24.475 19.5252V19.5252L25.4497 19.3014ZM24.6626 17.6211L25.5454 17.1514L24.6626 17.6211ZM24.341 16.9696L23.4057 17.3236L23.4057 17.3236L24.341 16.9696ZM24.341 15.0304L23.4057 14.6764L23.4057 14.6764L24.341 15.0304ZM24.6626 14.3789L25.5454 14.8486V14.8486L24.6626 14.3789ZM25.4497 12.6986L24.475 12.4748V12.4748L25.4497 12.6986ZM23.584 9.4671L23.2905 10.4231L23.2905 10.4231L23.584 9.4671ZM21.7352 9.30861L21.7006 10.308L21.7352 9.30861ZM21.0102 9.26136L20.8492 10.2483H20.8492L21.0102 9.26136ZM19.3308 8.29174L20.105 7.65879L20.105 7.65879L19.3308 8.29174ZM18.9274 7.68754L19.7756 7.15783L19.7711 7.15067L18.9274 7.68754ZM18.9274 7.68751L18.0591 8.18365L18.071 8.20431L18.0837 8.22439L18.9274 7.68751ZM18.9274 7.6875L19.7956 7.19136L19.7859 7.17439L19.7756 7.15781L18.9274 7.6875ZM17.8657 6.16567L17.1846 6.89783L17.1846 6.89783L17.8657 6.16567ZM13.9209 8.21721C14.1907 7.78521 14.3774 7.48663 14.5293 7.26375C14.6824 7.03914 14.7653 6.94453 14.8155 6.89783L13.4532 5.4335C13.2379 5.63382 13.0554 5.87518 12.8767 6.13727C12.6969 6.40109 12.4855 6.73992 12.2245 7.15782L13.9209 8.21721ZM13.4435 8.9247C13.6036 8.72882 13.7395 8.50774 13.9209 8.21721L12.2245 7.15782C12.0152 7.49296 11.9557 7.58472 11.8951 7.65879L13.4435 8.9247ZM11.1509 10.2483C12.051 10.1014 12.8663 9.6307 13.4435 8.9247L11.8951 7.65879C11.6266 7.98716 11.2474 8.20611 10.8288 8.27442L11.1509 10.2483ZM10.2995 10.308C10.6419 10.2961 10.9012 10.2891 11.1509 10.2483L10.8288 8.27442C10.7344 8.28983 10.6251 8.29552 10.2303 8.30921L10.2995 10.308ZM8.70962 10.4231C8.77515 10.4029 8.89854 10.3785 9.16961 10.3582C9.43859 10.338 9.79051 10.3256 10.2995 10.308L10.2303 8.30921C9.73786 8.32627 9.33873 8.33991 9.02034 8.36374C8.70404 8.38741 8.40374 8.42483 8.12259 8.51115L8.70962 10.4231ZM7.52505 12.4748C7.321 11.5861 7.83796 10.6907 8.70962 10.4231L8.12259 8.51115C6.24853 9.08655 5.13706 11.0117 5.57578 12.9224L7.52505 12.4748ZM8.22037 13.9092C7.98114 13.4596 7.8159 13.1486 7.69885 12.9056C7.58088 12.6607 7.54039 12.5416 7.52505 12.4748L5.57578 12.9224C5.64159 13.209 5.75934 13.4878 5.89699 13.7735C6.03555 14.0612 6.2233 14.4137 6.45472 14.8486L8.22037 13.9092ZM8.59437 14.6764C8.50481 14.4398 8.38126 14.2116 8.22037 13.9092L6.45472 14.8486C6.64032 15.1974 6.69001 15.2949 6.72387 15.3844L8.59437 14.6764ZM8.59437 17.3236C8.91719 16.4707 8.91719 15.5293 8.59437 14.6764L6.72387 15.3844C6.87402 15.7811 6.87402 16.219 6.72387 16.6156L8.59437 17.3236ZM8.22037 18.0908C8.38126 17.7884 8.50481 17.5602 8.59437 17.3236L6.72387 16.6156C6.69001 16.7051 6.64032 16.8026 6.45472 17.1514L8.22037 18.0908ZM7.52505 19.5252C7.54039 19.4584 7.58088 19.3393 7.69885 19.0944C7.8159 18.8514 7.98114 18.5404 8.22037 18.0908L6.45472 17.1514C6.2233 17.5864 6.03555 17.9388 5.89699 18.2265C5.75934 18.5122 5.64159 18.791 5.57578 19.0777L7.52505 19.5252ZM8.70962 21.577C7.83796 21.3093 7.321 20.4139 7.52505 19.5252L5.57578 19.0777C5.13706 20.9883 6.24853 22.9135 8.12259 23.4889L8.70962 21.577ZM10.2995 21.692C9.79051 21.6744 9.43859 21.662 9.16961 21.6419C8.89854 21.6216 8.77515 21.5971 8.70962 21.577L8.12259 23.4889C8.40374 23.5752 8.70404 23.6126 9.02034 23.6363C9.33873 23.6601 9.73786 23.6737 10.2303 23.6908L10.2995 21.692ZM11.1509 21.7517C10.9012 21.711 10.6419 21.7039 10.2995 21.692L10.2303 23.6908C10.6251 23.7045 10.7344 23.7102 10.8288 23.7256L11.1509 21.7517ZM13.4435 23.0753C12.8663 22.3693 12.051 21.8986 11.1509 21.7517L10.8288 23.7256C11.2474 23.7939 11.6266 24.0129 11.8951 24.3412L13.4435 23.0753ZM13.9209 23.7828C13.7394 23.4923 13.6036 23.2712 13.4435 23.0753L11.8951 24.3412C11.9557 24.4153 12.0152 24.507 12.2245 24.8422L13.9209 23.7828ZM13.9111 23.7675L13.9111 23.7675L12.2342 24.8575L12.2343 24.8575L13.9111 23.7675ZM14.8155 25.1022C14.7653 25.0555 14.6824 24.9609 14.5293 24.7363C14.3774 24.5134 14.1907 24.2148 13.9209 23.7828L12.2245 24.8422C12.4855 25.2601 12.6969 25.5989 12.8767 25.8627C13.0554 26.1248 13.2379 26.3662 13.4532 26.5665L14.8155 25.1022ZM17.1846 25.1022C16.517 25.7232 15.4831 25.7232 14.8155 25.1022L13.4532 26.5665C14.8886 27.9018 17.1115 27.9018 18.5469 26.5665L17.1846 25.1022ZM18.0792 23.7828C17.8094 24.2148 17.6227 24.5134 17.4708 24.7363C17.3177 24.9609 17.2348 25.0555 17.1846 25.1022L18.5469 26.5665C18.7622 26.3662 18.9447 26.1248 19.1234 25.8627C19.3032 25.5989 19.5146 25.2601 19.7756 24.8422L18.0792 23.7828ZM18.1274 23.7125L18.1274 23.7125L19.7274 24.9125L19.7274 24.9125L18.1274 23.7125ZM18.5566 23.0753C18.3965 23.2712 18.2606 23.4923 18.0792 23.7828L19.7756 24.8422C19.9849 24.5071 20.0444 24.4153 20.105 24.3412L18.5566 23.0753ZM20.8492 21.7517C19.9491 21.8986 19.1338 22.3693 18.5566 23.0753L20.105 24.3412C20.3735 24.0129 20.7527 23.7939 21.1713 23.7256L20.8492 21.7517ZM21.7006 21.692C21.3582 21.7039 21.0989 21.711 20.8492 21.7517L21.1713 23.7256C21.2657 23.7102 21.375 23.7045 21.7698 23.6908L21.7006 21.692ZM23.2905 21.577C23.2249 21.5971 23.1016 21.6216 22.8305 21.6419C22.5615 21.662 22.2096 21.6744 21.7006 21.692L21.7698 23.6908C22.2622 23.6737 22.6614 23.6601 22.9798 23.6363C23.2961 23.6126 23.5964 23.5752 23.8775 23.4889L23.2905 21.577ZM24.475 19.5252C24.6791 20.4139 24.1621 21.3093 23.2905 21.577L23.8775 23.4889C25.7516 22.9135 26.863 20.9883 26.4243 19.0777L24.475 19.5252ZM23.7797 18.0908C24.019 18.5404 24.1842 18.8514 24.3012 19.0944C24.4192 19.3393 24.4597 19.4584 24.475 19.5252L26.4243 19.0777C26.3585 18.791 26.2408 18.5122 26.1031 18.2265C25.9645 17.9388 25.7768 17.5864 25.5454 17.1514L23.7797 18.0908ZM23.4057 17.3236C23.4953 17.5602 23.6188 17.7884 23.7797 18.0908L25.5454 17.1514C25.3598 16.8026 25.3101 16.7051 25.2762 16.6156L23.4057 17.3236ZM23.4057 14.6764C23.0829 15.5293 23.0829 16.4707 23.4057 17.3236L25.2762 16.6156C25.1261 16.219 25.1261 15.7811 25.2762 15.3844L23.4057 14.6764ZM23.7797 13.9092C23.6188 14.2116 23.4953 14.4398 23.4057 14.6764L25.2762 15.3844C25.3101 15.2949 25.3598 15.1974 25.5454 14.8486L23.7797 13.9092ZM24.475 12.4748C24.4597 12.5416 24.4192 12.6607 24.3012 12.9056C24.1842 13.1486 24.019 13.4596 23.7797 13.9092L25.5454 14.8486C25.7768 14.4137 25.9645 14.0612 26.1031 13.7735C26.2408 13.4878 26.3585 13.209 26.4243 12.9224L24.475 12.4748ZM23.2905 10.4231C24.1621 10.6907 24.6791 11.5861 24.475 12.4748L26.4243 12.9224C26.863 11.0117 25.7516 9.08655 23.8775 8.51115L23.2905 10.4231ZM21.7006 10.308C22.2096 10.3256 22.5615 10.338 22.8305 10.3582C23.1016 10.3785 23.2249 10.4029 23.2905 10.4231L23.8775 8.51115C23.5964 8.42483 23.2961 8.38741 22.9798 8.36374C22.6614 8.33991 22.2622 8.32627 21.7698 8.30921L21.7006 10.308ZM20.8492 10.2483C21.0989 10.2891 21.3582 10.2961 21.7006 10.308L21.7698 8.30921C21.375 8.29552 21.2657 8.28983 21.1713 8.27442L20.8492 10.2483ZM18.5566 8.9247C19.1338 9.6307 19.9491 10.1014 20.8492 10.2483L21.1713 8.27442C20.7527 8.20611 20.3735 7.98716 20.105 7.65879L18.5566 8.9247ZM18.0792 8.21724C18.2607 8.50775 18.3965 8.72883 18.5566 8.9247L20.105 7.65879C20.0444 7.58472 19.9849 7.49297 19.7756 7.15785L18.0792 8.21724ZM18.0837 8.22439L18.0838 8.22442L19.7711 7.15067L19.7711 7.15064L18.0837 8.22439ZM18.0591 8.18364L18.0591 8.18365L19.7956 7.19137L19.7956 7.19136L18.0591 8.18364ZM17.1846 6.89783C17.2348 6.94453 17.3177 7.03914 17.4708 7.26375C17.6227 7.48662 17.8094 7.7852 18.0792 8.2172L19.7756 7.15781C19.5146 6.73992 19.3032 6.40108 19.1234 6.13726C18.9447 5.87518 18.7622 5.63382 18.5469 5.4335L17.1846 6.89783ZM14.8155 6.89783C15.4831 6.27677 16.517 6.27677 17.1846 6.89783L18.5469 5.4335C17.1115 4.09822 14.8886 4.09822 13.4532 5.4335L14.8155 6.89783ZM19.0001 16C19.0001 17.6568 17.657 19 16.0001 19V21C18.7615 21 21.0001 18.7614 21.0001 16H19.0001ZM16.0001 13C17.657 13 19.0001 14.3431 19.0001 16H21.0001C21.0001 13.2385 18.7615 11 16.0001 11V13ZM13.0001 16C13.0001 14.3431 14.3433 13 16.0001 13V11C13.2387 11 11.0001 13.2385 11.0001 16H13.0001ZM16.0001 19C14.3433 19 13.0001 17.6568 13.0001 16H11.0001C11.0001 18.7614 13.2387 21 16.0001 21V19Z" fill="#75BD62" mask="url(#path-1-inside-1_498_513)"/>
</svg>
