<svg width="40" height="40" viewBox="0 0 40 40" fill="none" xmlns="http://www.w3.org/2000/svg">
<circle cx="20" cy="20" r="20" fill="#FFB5B5"/>
<path fill-rule="evenodd" clip-rule="evenodd" d="M17 18C19.2091 18 21 16.2091 21 14C21 11.7909 19.2091 10 17 10C14.7909 10 13 11.7909 13 14C13 16.2091 14.7909 18 17 18ZM17 20C20.3137 20 23 17.3137 23 14C23 10.6863 20.3137 8 17 8C13.6863 8 11 10.6863 11 14C11 17.3137 13.6863 20 17 20ZM15 24C11.6863 24 9 26.6863 9 30H25C25 26.6863 22.3137 24 19 24H15ZM15 22C10.5817 22 7 25.5817 7 30C7 31.1046 7.89543 32 9 32H25C26.1046 32 27 31.1046 27 30C27 25.5817 23.4183 22 19 22H15ZM31.4942 14.2583C31.8386 13.9139 32.397 13.9139 32.7414 14.2583C33.0858 14.6027 33.0858 15.1611 32.7414 15.5055L30.247 17.9999L32.7414 20.4942C33.0858 20.8386 33.0858 21.397 32.7414 21.7414C32.397 22.0858 31.8386 22.0858 31.4942 21.7414L28.9998 19.2471L26.5055 21.7414C26.1611 22.0858 25.6027 22.0858 25.2583 21.7414C24.9139 21.397 24.9139 20.8386 25.2583 20.4942L27.7526 17.9999L25.2583 15.5055C24.9139 15.1611 24.9139 14.6028 25.2583 14.2584C25.6027 13.914 26.1611 13.914 26.5055 14.2584L28.9998 16.7527L31.4942 14.2583Z" fill="#FF6B6B"/>
</svg>
