<svg width="25" height="25" viewBox="0 0 25 25" fill="none" xmlns="http://www.w3.org/2000/svg">
<rect x="-0.5" y="0.5" width="24" height="24" rx="7.5" transform="matrix(-1 0 0 1 24 0)" fill="white" stroke="#75BD62"/>
<path d="M6.5 11C6.5 10.4477 6.94772 10 7.5 10H17.5C18.0523 10 18.5 10.4477 18.5 11V16C18.5 17.1046 17.6046 18 16.5 18H8.5C7.39543 18 6.5 17.1046 6.5 16V11Z" fill="#75BD62"/>
<rect x="8.5" y="12" width="2" height="2" rx="0.5" fill="white"/>
<rect x="11.5" y="12" width="2" height="2" rx="0.5" fill="white"/>
<rect x="14.5" y="12" width="2" height="2" rx="0.5" fill="white"/>
<path d="M6.5 8.33333C6.5 7.59695 7.09695 7 7.83333 7H17.1667C17.903 7 18.5 7.59695 18.5 8.33333V8.33333C18.5 8.70152 18.2015 9 17.8333 9H7.16667C6.79848 9 6.5 8.70152 6.5 8.33333V8.33333Z" fill="#75BD62"/>
<rect x="9.5" y="6" width="2" height="3" rx="1" fill="#75BD62"/>
<rect x="13.5" y="6" width="2" height="3" rx="1" fill="#75BD62"/>
</svg>
