<svg width="135" height="132" viewBox="0 0 135 132" fill="none" xmlns="http://www.w3.org/2000/svg">
<path fill-rule="evenodd" clip-rule="evenodd" d="M83.4148 26.1694C83.4148 28.7863 83.4693 30.3128 83.5784 30.749C83.5784 43.8337 81.016 57.2455 75.8911 70.9844C73.9284 62.3703 72.9471 53.8653 72.9471 45.4693C72.9471 37.0733 73.4923 30.2038 74.5827 24.8609C75.673 19.4089 77.3632 16.683 79.653 16.683C81.9428 16.683 83.1967 19.8451 83.4148 26.1694ZM16.683 61.9887C16.683 39.8538 20.7174 20.5539 28.7863 4.08897C29.1134 3.10762 29.277 2.28982 29.277 1.63559C29.277 0.545198 28.7863 0 27.8049 0C24.9699 0 22.8437 1.14491 21.4262 3.43473C15.8652 12.2669 10.9039 25.079 6.54234 41.871C2.18078 58.5539 0 73.983 0 88.158C0 114.327 8.34148 127.412 25.0244 127.412C39.4176 127.412 52.5568 118.962 64.442 102.061C67.168 111.438 71.0389 118.743 76.0547 123.977C81.0705 129.32 86.1953 131.992 91.4292 131.992C99.28 131.992 106.258 129.756 112.365 125.286C118.58 120.924 121.688 117.217 121.688 114.164C121.688 113.292 121.36 112.419 120.706 111.547C120.052 110.675 119.343 110.238 118.58 110.238C117.817 110.238 116.563 110.947 114.818 112.365C113.073 113.673 111.22 114.327 109.257 114.327C101.733 114.327 95.3001 110.947 89.9572 104.187C84.7233 97.3173 80.6343 88.5942 77.6903 78.0174C82.1609 67.6587 85.5956 56.9729 87.9945 45.9599C90.5024 34.947 91.7563 25.4061 91.7563 17.3372C91.7563 6.21522 89.63 0.654236 85.3775 0.654236C79.4894 0.654236 74.201 7.52369 69.5123 21.2626C64.9327 35.0015 61.9887 52.2842 60.6802 73.1106C60.6802 80.6343 61.2799 87.6674 62.4793 94.2097C55.937 101.842 48.7404 105.659 40.8896 105.659C33.1479 105.659 27.5323 102.497 24.0431 96.1724C22.4075 93.2283 21.0445 90.2298 19.9541 87.1767C18.8637 84.1236 18.0459 79.9801 17.5008 74.7462C16.9556 69.5124 16.683 65.2598 16.683 61.9887Z" fill="white"/>
<path fill-rule="evenodd" clip-rule="evenodd" d="M130.347 99.4438C130.884 99.4438 131.319 99.0087 131.319 98.4719C131.319 97.9351 130.884 97.5 130.347 97.5C129.81 97.5 129.375 97.9351 129.375 98.4719C129.375 99.0087 129.81 99.4438 130.347 99.4438ZM131.812 103.594C131.812 104.474 131.099 105.188 130.219 105.188C129.339 105.188 128.625 104.474 128.625 103.594C128.625 102.714 129.339 102 130.219 102C131.099 102 131.812 102.714 131.812 103.594ZM127.075 108.631C127.075 109.705 126.205 110.575 125.131 110.575C124.058 110.575 123.188 109.705 123.188 108.631C123.188 107.558 124.058 106.688 125.131 106.688C126.205 106.688 127.075 107.558 127.075 108.631ZM134.751 108.25C134.751 108.906 134.219 109.438 133.563 109.438C132.907 109.438 132.375 108.906 132.375 108.25C132.375 107.594 132.907 107.062 133.563 107.062C134.219 107.062 134.751 107.594 134.751 108.25Z" fill="white"/>
</svg>
