<svg width="24" height="24" viewBox="0 0 24 24" fill="none" xmlns="http://www.w3.org/2000/svg">
<rect width="24" height="24" rx="8" fill="#FF4F4F"/>
<path fill-rule="evenodd" clip-rule="evenodd" d="M16.2381 7.75288C15.8476 7.36236 15.2144 7.36236 14.8239 7.75288L11.9955 10.5813L9.16716 7.75289C8.77664 7.36237 8.14347 7.36237 7.75295 7.75289C7.36242 8.14342 7.36242 8.77658 7.75295 9.16711L10.5813 11.9955L7.75285 14.824C7.36233 15.2145 7.36233 15.8476 7.75285 16.2382C8.14338 16.6287 8.77654 16.6287 9.16707 16.2382L11.9955 13.4097L14.824 16.2382C15.2145 16.6287 15.8477 16.6287 16.2382 16.2382C16.6288 15.8477 16.6288 15.2145 16.2382 14.824L13.4098 11.9955L16.2381 9.1671C16.6287 8.77657 16.6287 8.14341 16.2381 7.75288Z" fill="white"/>
</svg>
