<svg width="40" height="40" viewBox="0 0 40 40" fill="none" xmlns="http://www.w3.org/2000/svg">
<circle cx="20" cy="20" r="20" fill="#FFB5B5"/>
<path fill-rule="evenodd" clip-rule="evenodd" d="M22 8V9H29C30.1046 9 31 9.89543 31 11C31 12.1046 30.1046 13 29 13V31C29 32.1046 28.1046 33 27 33H13C11.8954 33 11 32.1046 11 31V13C9.89543 13 9 12.1046 9 11C9 9.89543 9.89543 9 11 9H18V8C18 6.89543 18.8954 6 20 6C21.1046 6 22 6.89543 22 8Z" fill="#FF6B6B"/>
<rect opacity="0.5" x="16" y="15" width="2" height="16" rx="1" fill="white"/>
<rect opacity="0.5" x="22" y="15" width="2" height="16" rx="1" fill="white"/>
</svg>
