<svg width="28" height="28" viewBox="0 0 28 28" fill="none" xmlns="http://www.w3.org/2000/svg">
<path fill-rule="evenodd" clip-rule="evenodd" d="M14 0C6.26801 0 0 6.26801 0 14C0 21.732 6.26801 28 14 28C21.732 28 28 21.732 28 14C28 6.26801 21.732 0 14 0ZM4.41421 15.1421C3.63317 14.3611 3.63316 13.0947 4.41421 12.3137C5.19526 11.5326 6.46159 11.5326 7.24264 12.3137L11.4853 16.5563L19.9706 8.07105C20.7516 7.29 22.0179 7.29 22.799 8.07105C23.58 8.8521 23.58 10.1184 22.799 10.8995L12.8995 20.799C12.1184 21.58 10.8521 21.58 10.0711 20.799L4.41421 15.1421Z" fill="white" fill-opacity="0.5"/>
</svg>
