<svg width="22" height="18" viewBox="0 0 22 18" fill="none" xmlns="http://www.w3.org/2000/svg">
<path fill-rule="evenodd" clip-rule="evenodd" d="M20.2057 8.90814C21.6933 6.92266 21.0764 4.11657 19.2759 2.40974C17.0502 0.299813 13.5354 0.393693 11.4255 2.61943L10.862 3.21383L10.295 2.6157C8.25137 0.459974 4.84713 0.369099 2.69141 2.41272C0.929349 4.08315 0.35149 6.81978 1.71208 8.83075C2.94615 10.6547 4.83008 12.5008 9.73459 16.1108C10.0451 16.3937 10.4305 16.7164 10.9188 17.0921C10.953 17.1185 11.0014 17.1208 11.0369 17.0962C12.0273 16.4114 13.0106 15.562 13.6821 14.9491C17.3889 11.9934 19.0733 10.4194 20.2057 8.90814Z" fill="#FF8989"/>
</svg>
