<svg width="22" height="18" viewBox="0 0 22 18" fill="none" xmlns="http://www.w3.org/2000/svg">
<mask id="path-1-inside-1_2974_1651" fill="white">
<path fill-rule="evenodd" clip-rule="evenodd" d="M20.2057 8.90814C21.6933 6.92266 21.0764 4.11657 19.2759 2.40974C17.0502 0.299813 13.5354 0.393693 11.4255 2.61943L10.862 3.21383L10.295 2.6157C8.25137 0.459974 4.84713 0.369099 2.69141 2.41272C0.929349 4.08315 0.35149 6.81978 1.71208 8.83075C2.94615 10.6547 4.83008 12.5008 9.73459 16.1108C10.0451 16.3937 10.4305 16.7164 10.9188 17.0921C10.953 17.1185 11.0014 17.1208 11.0369 17.0962C12.0273 16.4114 13.0106 15.562 13.6821 14.9491C17.3889 11.9934 19.0733 10.4194 20.2057 8.90814Z" fill="#FF8989"/>
</mask>
<path d="M19.2759 2.40974L19.9639 1.68401V1.68401L19.2759 2.40974ZM20.2057 8.90814L21.006 9.50775V9.50775L20.2057 8.90814ZM11.4255 2.61943L10.6998 1.93145V1.93145L11.4255 2.61943ZM10.862 3.21383L10.1363 3.90181L10.862 4.66736L11.5878 3.9018L10.862 3.21383ZM10.295 2.6157L9.56927 3.30368L10.295 2.6157ZM2.69141 2.41272L2.00342 1.687L2.69141 2.41272ZM1.71208 8.83075L2.54032 8.27037H2.54032L1.71208 8.83075ZM9.73459 16.1108L10.408 15.3716L10.3694 15.3364L10.3274 15.3055L9.73459 16.1108ZM10.9188 17.0921L11.5287 16.2996L11.5286 16.2996L10.9188 17.0921ZM11.0369 17.0962L10.4682 16.2737L10.4682 16.2737L11.0369 17.0962ZM13.6821 14.9491L13.0587 14.1672L13.0326 14.188L13.008 14.2105L13.6821 14.9491ZM18.5879 3.13548C20.1285 4.59587 20.5067 6.83859 19.4054 8.30852L21.006 9.50775C22.8798 7.00674 22.0243 3.63726 19.9639 1.68401L18.5879 3.13548ZM12.1512 3.3074C13.8812 1.48248 16.763 1.40551 18.5879 3.13548L19.9639 1.68401C17.3373 -0.80588 13.1896 -0.695094 10.6998 1.93145L12.1512 3.3074ZM11.5878 3.9018L12.1512 3.3074L10.6998 1.93145L10.1363 2.52585L11.5878 3.9018ZM9.56927 3.30368L10.1363 3.90181L11.5877 2.52584L11.0207 1.92771L9.56927 3.30368ZM3.3794 3.13844C5.13431 1.47479 7.90561 1.54877 9.56927 3.30368L11.0207 1.92771C8.59713 -0.628818 4.55995 -0.736589 2.00342 1.687L3.3794 3.13844ZM2.54032 8.27037C1.51048 6.74826 1.89386 4.54673 3.3794 3.13844L2.00342 1.687C-0.0351616 3.61957 -0.807498 6.89131 0.883842 9.39112L2.54032 8.27037ZM10.3274 15.3055C5.43685 11.7058 3.6725 9.94375 2.54032 8.27037L0.883842 9.39112C2.21979 11.3657 4.22331 13.2959 9.1418 16.9162L10.3274 15.3055ZM11.5286 16.2996C11.0577 15.9372 10.6942 15.6323 10.408 15.3716L9.06117 16.8501C9.39595 17.1551 9.80328 17.4955 10.309 17.8847L11.5286 16.2996ZM10.4682 16.2737C10.807 16.0394 11.2347 16.0734 11.5287 16.2996L10.309 17.8847C10.6714 18.1635 11.1958 18.2021 11.6057 17.9187L10.4682 16.2737ZM13.008 14.2105C12.3496 14.8113 11.4045 15.6262 10.4682 16.2737L11.6057 17.9187C12.6501 17.1965 13.6715 16.3126 14.3562 15.6877L13.008 14.2105ZM19.4054 8.30852C18.3576 9.70693 16.7655 11.2115 13.0587 14.1672L14.3056 15.731C18.0123 12.7753 19.789 11.132 21.006 9.50775L19.4054 8.30852Z" fill="#FF8989" mask="url(#path-1-inside-1_2974_1651)"/>
</svg>

