<svg width="22" height="18" viewBox="0 0 22 18" fill="none" xmlns="http://www.w3.org/2000/svg">
<mask id="path-1-inside-1_2308_1622" fill="white">
<path fill-rule="evenodd" clip-rule="evenodd" d="M20.2058 8.9081C21.6934 6.92263 21.0765 4.11654 19.276 2.40971C17.0503 0.299783 13.5355 0.393662 11.4256 2.6194L10.8621 3.2138L10.2951 2.61567C8.25149 0.459944 4.84725 0.369069 2.69153 2.41269C0.929471 4.08312 0.351612 6.81975 1.7122 8.83072C2.94627 10.6547 4.8302 12.5008 9.73471 16.1108C10.0452 16.3936 10.4306 16.7163 10.9189 17.0921C10.9532 17.1185 11.0015 17.1207 11.037 17.0961C12.0274 16.4114 13.0107 15.562 13.6823 14.9491C17.389 11.9934 19.0735 10.4194 20.2058 8.9081Z"/>
</mask>
<path d="M19.276 2.40971L19.964 1.68398V1.68398L19.276 2.40971ZM20.2058 8.9081L21.0061 9.50772V9.50772L20.2058 8.9081ZM11.4256 2.6194L10.6999 1.93142V1.93142L11.4256 2.6194ZM10.8621 3.2138L10.1364 3.90178L10.8622 4.66733L11.5879 3.90177L10.8621 3.2138ZM10.2951 2.61567L9.56939 3.30365L10.2951 2.61567ZM2.69153 2.41269L2.00355 1.68696L2.69153 2.41269ZM1.7122 8.83072L2.54044 8.27034L2.54044 8.27034L1.7122 8.83072ZM9.73471 16.1108L10.4081 15.3715L10.3695 15.3364L10.3275 15.3055L9.73471 16.1108ZM10.9189 17.0921L11.5288 16.2996L11.5288 16.2996L10.9189 17.0921ZM11.037 17.0961L10.4683 16.2736L10.4683 16.2736L11.037 17.0961ZM13.6823 14.9491L13.0588 14.1672L13.0328 14.188L13.0081 14.2104L13.6823 14.9491ZM18.5881 3.13545C20.1286 4.59584 20.5069 6.83856 19.4055 8.30849L21.0061 9.50772C22.88 7.00671 22.0245 3.63723 19.964 1.68398L18.5881 3.13545ZM12.1514 3.30737C13.8813 1.48245 16.7631 1.40548 18.5881 3.13545L19.964 1.68398C17.3375 -0.80591 13.1898 -0.695125 10.6999 1.93142L12.1514 3.30737ZM11.5879 3.90177L12.1514 3.30737L10.6999 1.93142L10.1364 2.52582L11.5879 3.90177ZM9.56939 3.30365L10.1364 3.90178L11.5879 2.52581L11.0208 1.92768L9.56939 3.30365ZM3.37952 3.13841C5.13443 1.47476 7.90573 1.54874 9.56939 3.30365L11.0208 1.92768C8.59725 -0.628848 4.56007 -0.736619 2.00355 1.68696L3.37952 3.13841ZM2.54044 8.27034C1.5106 6.74823 1.89398 4.5467 3.37952 3.13841L2.00355 1.68696C-0.0350395 3.61954 -0.807376 6.89128 0.883964 9.39109L2.54044 8.27034ZM10.3275 15.3055C5.43697 11.7057 3.67262 9.94372 2.54044 8.27034L0.883964 9.39109C2.21991 11.3656 4.22343 13.2959 9.14192 16.9162L10.3275 15.3055ZM11.5288 16.2996C11.0578 15.9372 10.6943 15.6322 10.4081 15.3715L9.0613 16.8501C9.39607 17.155 9.8034 17.4955 10.3091 17.8846L11.5288 16.2996ZM10.4683 16.2736C10.8071 16.0394 11.2348 16.0734 11.5288 16.2996L10.3091 17.8846C10.6715 18.1635 11.1959 18.2021 11.6058 17.9187L10.4683 16.2736ZM13.0081 14.2104C12.3497 14.8113 11.4046 15.6262 10.4683 16.2736L11.6058 17.9187C12.6502 17.1965 13.6716 16.3126 14.3564 15.6877L13.0081 14.2104ZM19.4055 8.30849C18.3578 9.7069 16.7656 11.2115 13.0588 14.1672L14.3057 15.7309C18.0124 12.7753 19.7892 11.1319 21.0061 9.50772L19.4055 8.30849Z" fill="#FF8989" mask="url(#path-1-inside-1_2308_1622)"/>
</svg>
