<svg width="24" height="24" viewBox="0 0 24 24" fill="none" xmlns="http://www.w3.org/2000/svg">
<path fill-rule="evenodd" clip-rule="evenodd" d="M17.6566 6.34288C17.2661 5.95236 16.633 5.95236 16.2424 6.34288L11.9998 10.5855L7.75725 6.34289C7.36672 5.95237 6.73356 5.95237 6.34303 6.34289C5.95251 6.73342 5.95251 7.36658 6.34303 7.75711L10.5856 11.9997L6.34294 16.2424C5.95242 16.6329 5.95242 17.2661 6.34294 17.6566C6.73346 18.0471 7.36663 18.0471 7.75715 17.6566L11.9998 13.4139L16.2425 17.6566C16.6331 18.0471 17.2662 18.0471 17.6567 17.6566C18.0473 17.2661 18.0473 16.6329 17.6567 16.2424L13.414 11.9997L17.6566 7.75709C18.0472 7.36657 18.0472 6.7334 17.6566 6.34288Z" fill="#A0A0A0"/>
</svg>
