<svg width="12" height="12" viewBox="0 0 12 12" fill="none" xmlns="http://www.w3.org/2000/svg">
<path fill-rule="evenodd" clip-rule="evenodd" d="M11.6567 0.342881C11.2661 -0.0476433 10.633 -0.0476433 10.2424 0.342881L5.99984 4.58548L1.75725 0.342892C1.36673 -0.0476318 0.73356 -0.0476316 0.343036 0.342893C-0.0474885 0.733417 -0.0474888 1.36658 0.343035 1.75711L4.58562 5.99969L0.342942 10.2424C-0.0475822 10.6329 -0.0475822 11.2661 0.342942 11.6566C0.733466 12.0471 1.36663 12.0471 1.75716 11.6566L5.99984 7.41391L10.2425 11.6566C10.6331 12.0471 11.2662 12.0471 11.6567 11.6566C12.0473 11.2661 12.0473 10.6329 11.6567 10.2424L7.41405 5.99969L11.6567 1.75709C12.0472 1.36657 12.0472 0.733405 11.6567 0.342881Z" fill="#A0A0A0"/>
</svg>
