<svg width="12" height="13" viewBox="0 0 12 13" fill="none" xmlns="http://www.w3.org/2000/svg">
<path fill-rule="evenodd" clip-rule="evenodd" d="M11.6569 0.843156C11.2664 0.452631 10.6332 0.452631 10.2427 0.843156L6.00008 5.08576L1.75749 0.843167C1.36697 0.452643 0.733805 0.452643 0.34328 0.843167C-0.0472441 1.23369 -0.0472442 1.86686 0.34328 2.25738L4.58587 6.49997L0.343186 10.7427C-0.0473381 11.1332 -0.0473381 11.7663 0.343186 12.1569C0.73371 12.5474 1.36688 12.5474 1.7574 12.1569L6.00008 7.91418L10.2428 12.1569C10.6333 12.5474 11.2665 12.5474 11.657 12.1569C12.0475 11.7664 12.0475 11.1332 11.657 10.7427L7.41429 6.49997L11.6569 2.25737C12.0474 1.86684 12.0474 1.23368 11.6569 0.843156Z" fill="#7BAB6E"/>
</svg>
