<svg width="16" height="17" viewBox="0 0 16 17" fill="none" xmlns="http://www.w3.org/2000/svg">
<path d="M1 7.5C0.447715 7.5 0 7.94772 0 8.5C0 9.05228 0.447715 9.5 1 9.5V7.5ZM13.7071 9.20711C14.0976 8.81658 14.0976 8.18342 13.7071 7.79289L7.34315 1.42893C6.95262 1.03841 6.31946 1.03841 5.92893 1.42893C5.53841 1.81946 5.53841 2.45262 5.92893 2.84315L11.5858 8.5L5.92893 14.1569C5.53841 14.5474 5.53841 15.1805 5.92893 15.5711C6.31946 15.9616 6.95262 15.9616 7.34315 15.5711L13.7071 9.20711ZM1 9.5H13V7.5H1V9.5Z" fill="white"/>
</svg>
