<svg width="1136" height="1277" viewBox="0 0 1136 1277" fill="none" xmlns="http://www.w3.org/2000/svg">
<g filter="url(#filter0_f_550_350)">
<path fill-rule="evenodd" clip-rule="evenodd" d="M633.8 854.949C573.035 936.004 506.256 976.531 433.464 976.531C344.488 976.531 300 906.746 300 767.176C300 709.318 306.812 647.543 320.437 581.85C344.231 583.392 367.363 587.361 389.589 593.512C389.18 604.733 388.976 616.098 388.976 627.606C388.976 645.053 390.43 667.733 393.337 695.647C396.245 723.561 400.607 745.659 406.422 761.942C412.237 778.225 419.507 794.218 428.23 809.919C446.839 843.649 476.789 860.514 518.078 860.514C555.494 860.514 590.125 844.26 621.969 811.753C626.817 825.762 630.783 840.183 633.8 854.949Z" fill="#09FFC4"/>
</g>
<g filter="url(#filter1_f_550_350)">
<path fill-rule="evenodd" clip-rule="evenodd" d="M722.793 733.423C720.681 726.795 718.661 720.018 716.734 713.093C740.577 657.846 758.895 600.855 771.689 542.12C785.065 483.384 791.752 432.499 791.752 389.465C791.752 330.148 780.412 300.489 757.732 300.489C726.329 300.489 698.124 337.126 673.118 410.401C650.155 479.289 634.903 564.882 627.36 667.181C655.01 694.336 687.243 716.839 722.793 733.423ZM747.265 436.57C747.265 450.527 747.555 458.668 748.137 460.995C748.137 530.78 734.471 602.309 707.138 675.583C696.67 629.642 691.437 584.281 691.437 539.503C691.437 494.724 694.344 458.087 700.16 429.591C705.975 400.514 714.989 385.976 727.201 385.976C739.414 385.976 746.101 402.841 747.265 436.57Z" fill="#BFFF09"/>
</g>
<path fill-rule="evenodd" clip-rule="evenodd" d="M744.879 436.57C744.879 450.527 745.17 458.668 745.751 460.995C745.751 530.78 732.085 602.309 704.753 675.583C694.285 629.642 689.051 584.281 689.051 539.503C689.051 494.724 691.959 458.087 697.774 429.591C703.59 400.514 712.604 385.976 724.816 385.976C737.028 385.976 743.716 402.841 744.879 436.57ZM388.976 627.606C388.976 509.553 410.493 406.621 453.527 318.808C455.271 313.574 456.144 309.212 456.144 305.723C456.144 299.908 453.527 297 448.293 297C433.173 297 421.833 303.106 414.273 315.319C384.614 362.423 358.154 430.755 334.892 520.312C311.631 609.288 300 691.576 300 767.176C300 906.746 344.488 976.531 433.464 976.531C510.227 976.531 580.303 931.461 643.691 841.323C658.229 891.335 678.874 930.298 705.625 958.212C732.376 986.708 759.708 1000.96 787.622 1000.96C829.493 1000.96 866.712 989.034 899.278 965.191C932.426 941.929 949 922.157 949 905.874C949 901.221 947.255 896.569 943.766 891.917C940.277 887.264 936.497 884.938 932.426 884.938C928.355 884.938 921.668 888.718 912.363 896.278C903.058 903.257 893.172 906.746 882.704 906.746C842.578 906.746 808.267 888.718 779.772 852.663C751.858 816.026 730.05 769.502 714.348 713.093C738.191 657.846 756.51 600.855 769.304 542.12C782.679 483.384 789.367 432.499 789.367 389.465C789.367 330.148 778.027 300.489 755.347 300.489C723.944 300.489 695.739 337.126 670.733 410.401C646.308 483.675 630.606 575.849 623.628 686.923C623.628 727.05 626.826 764.559 633.223 799.452C598.331 840.16 559.949 860.513 518.078 860.513C476.789 860.513 446.839 843.649 428.23 809.919C419.507 794.218 412.237 778.225 406.422 761.942C400.607 745.659 396.245 723.56 393.337 695.647C390.43 667.733 388.976 645.052 388.976 627.606Z" fill="url(#paint0_linear_550_350)"/>
<path fill-rule="evenodd" clip-rule="evenodd" d="M744.879 436.57C744.879 450.527 745.17 458.668 745.751 460.995C745.751 530.78 732.085 602.309 704.753 675.583C694.285 629.642 689.051 584.281 689.051 539.503C689.051 494.724 691.959 458.087 697.774 429.591C703.59 400.514 712.604 385.976 724.816 385.976C737.028 385.976 743.716 402.841 744.879 436.57ZM388.976 627.606C388.976 509.553 410.493 406.621 453.527 318.808C455.271 313.574 456.144 309.212 456.144 305.723C456.144 299.908 453.527 297 448.293 297C433.173 297 421.833 303.106 414.273 315.319C384.614 362.423 358.154 430.755 334.892 520.312C311.631 609.288 300 691.576 300 767.176C300 906.746 344.488 976.531 433.464 976.531C510.227 976.531 580.303 931.461 643.691 841.323C658.229 891.335 678.874 930.298 705.625 958.212C732.376 986.708 759.708 1000.96 787.622 1000.96C829.493 1000.96 866.712 989.034 899.278 965.191C932.426 941.929 949 922.157 949 905.874C949 901.221 947.255 896.569 943.766 891.917C940.277 887.264 936.497 884.938 932.426 884.938C928.355 884.938 921.668 888.718 912.363 896.278C903.058 903.257 893.172 906.746 882.704 906.746C842.578 906.746 808.267 888.718 779.772 852.663C751.858 816.026 730.05 769.502 714.348 713.093C738.191 657.846 756.51 600.855 769.304 542.12C782.679 483.384 789.367 432.499 789.367 389.465C789.367 330.148 778.027 300.489 755.347 300.489C723.944 300.489 695.739 337.126 670.733 410.401C646.308 483.675 630.606 575.849 623.628 686.923C623.628 727.05 626.826 764.559 633.223 799.452C598.331 840.16 559.949 860.513 518.078 860.513C476.789 860.513 446.839 843.649 428.23 809.919C419.507 794.218 412.237 778.225 406.422 761.942C400.607 745.659 396.245 723.56 393.337 695.647C390.43 667.733 388.976 645.052 388.976 627.606Z" fill="url(#paint1_linear_550_350)" fill-opacity="0.4"/>
<path fill-rule="evenodd" clip-rule="evenodd" d="M995.183 827.367C998.046 827.367 1000.37 825.046 1000.37 822.183C1000.37 819.321 998.046 817 995.183 817C992.321 817 990 819.321 990 822.183C990 825.046 992.321 827.367 995.183 827.367ZM1003 849.5C1003 854.194 999.194 858 994.5 858C989.806 858 986 854.194 986 849.5C986 844.806 989.806 841 994.5 841C999.194 841 1003 844.806 1003 849.5ZM977.734 876.367C977.734 882.092 973.092 886.734 967.367 886.734C961.641 886.734 957 882.092 957 876.367C957 870.641 961.641 866 967.367 866C973.092 866 977.734 870.641 977.734 876.367ZM1018.67 874.335C1018.67 877.834 1015.83 880.671 1012.34 880.671C1008.84 880.671 1006 877.834 1006 874.335C1006 870.836 1008.84 868 1012.34 868C1015.83 868 1018.67 870.836 1018.67 874.335Z" fill="url(#paint2_linear_550_350)"/>
<path fill-rule="evenodd" clip-rule="evenodd" d="M995.183 827.367C998.046 827.367 1000.37 825.046 1000.37 822.183C1000.37 819.321 998.046 817 995.183 817C992.321 817 990 819.321 990 822.183C990 825.046 992.321 827.367 995.183 827.367ZM1003 849.5C1003 854.194 999.194 858 994.5 858C989.806 858 986 854.194 986 849.5C986 844.806 989.806 841 994.5 841C999.194 841 1003 844.806 1003 849.5ZM977.734 876.367C977.734 882.092 973.092 886.734 967.367 886.734C961.641 886.734 957 882.092 957 876.367C957 870.641 961.641 866 967.367 866C973.092 866 977.734 870.641 977.734 876.367ZM1018.67 874.335C1018.67 877.834 1015.83 880.671 1012.34 880.671C1008.84 880.671 1006 877.834 1006 874.335C1006 870.836 1008.84 868 1012.34 868C1015.83 868 1018.67 870.836 1018.67 874.335Z" fill="url(#paint3_linear_550_350)" fill-opacity="0.4"/>
<defs>
<filter id="filter0_f_550_350" x="0" y="281.85" width="933.8" height="994.681" filterUnits="userSpaceOnUse" color-interpolation-filters="sRGB">
<feFlood flood-opacity="0" result="BackgroundImageFix"/>
<feBlend mode="normal" in="SourceGraphic" in2="BackgroundImageFix" result="shape"/>
<feGaussianBlur stdDeviation="150" result="effect1_foregroundBlur_550_350"/>
</filter>
<filter id="filter1_f_550_350" x="327.36" y="0.489258" width="764.392" height="1032.93" filterUnits="userSpaceOnUse" color-interpolation-filters="sRGB">
<feFlood flood-opacity="0" result="BackgroundImageFix"/>
<feBlend mode="normal" in="SourceGraphic" in2="BackgroundImageFix" result="shape"/>
<feGaussianBlur stdDeviation="150" result="effect1_foregroundBlur_550_350"/>
</filter>
<linearGradient id="paint0_linear_550_350" x1="300" y1="297" x2="948.544" y2="1001.13" gradientUnits="userSpaceOnUse">
<stop stop-color="#A3ED8F"/>
<stop offset="1" stop-color="#75BD62"/>
</linearGradient>
<linearGradient id="paint1_linear_550_350" x1="300" y1="297" x2="948.544" y2="1001.13" gradientUnits="userSpaceOnUse">
<stop stop-color="#00A3FF" stop-opacity="0"/>
<stop offset="1" stop-color="#00A3FF"/>
</linearGradient>
<linearGradient id="paint2_linear_550_350" x1="-27.3048" y1="20.9528" x2="1189.06" y2="1237.33" gradientUnits="userSpaceOnUse">
<stop stop-color="#75BD62"/>
<stop offset="0.0001" stop-color="#A3ED8F"/>
<stop offset="1" stop-color="#75BD62"/>
</linearGradient>
<linearGradient id="paint3_linear_550_350" x1="-27.3048" y1="20.9528" x2="1189.06" y2="1237.33" gradientUnits="userSpaceOnUse">
<stop stop-color="#00A3FF" stop-opacity="0"/>
<stop offset="1" stop-color="#00A3FF"/>
</linearGradient>
</defs>
</svg>
