<svg width="24" height="24" viewBox="0 0 24 24" fill="none" xmlns="http://www.w3.org/2000/svg">
<rect width="24" height="24" rx="8" fill="#408CFF"/>
<path fill-rule="evenodd" clip-rule="evenodd" d="M16.0395 7.96291C15.649 7.57238 15.0159 7.57238 14.6253 7.96291L9.1099 13.4783C9.03179 13.5564 9.03179 13.6831 9.1099 13.7612L10.2413 14.8926C10.3194 14.9707 10.446 14.9707 10.5241 14.8926L16.0395 9.37712C16.4301 8.9866 16.4301 8.35343 16.0395 7.96291ZM8.48997 14.5557C8.38484 14.4506 8.20583 14.4929 8.15881 14.6339L7.68053 16.0688C7.62841 16.2251 7.77716 16.3739 7.93351 16.3217L9.36836 15.8435C9.50941 15.7964 9.55167 15.6174 9.44654 15.5123L8.48997 14.5557Z" fill="white"/>
</svg>
