<svg width="45" height="49" viewBox="0 0 45 49" fill="none" xmlns="http://www.w3.org/2000/svg">
<path fill-rule="evenodd" clip-rule="evenodd" d="M30.6452 10.1859C30.6452 11.1263 30.6648 11.6749 30.7039 11.8317C30.7039 16.534 29.7831 21.3538 27.9413 26.2913C27.236 23.1956 26.8833 20.1391 26.8833 17.1218C26.8833 14.1045 27.0793 11.6357 27.4711 9.71563C27.863 7.75634 28.4704 6.77669 29.2933 6.77669C30.1162 6.77669 30.5668 7.91308 30.6452 10.1859ZM6.66341 23.0584C6.66341 15.1037 8.11329 8.16779 11.013 2.25072C11.1306 1.89805 11.1894 1.60416 11.1894 1.36904C11.1894 0.97718 11.013 0.78125 10.6604 0.78125C9.64154 0.78125 8.87741 1.1927 8.368 2.01561C6.36951 5.18966 4.58656 9.79401 3.01912 15.8286C1.45169 21.8241 0.667969 27.3689 0.667969 32.463C0.667969 41.8677 3.66569 46.57 9.66113 46.57C14.8337 46.57 19.5556 43.5331 23.8268 37.4592C24.8065 40.8292 26.1976 43.4547 28.0001 45.3356C29.8027 47.2557 31.6444 48.2158 33.5253 48.2158C36.3467 48.2158 38.8546 47.4125 41.049 45.8058C43.2826 44.2384 44.3994 42.9061 44.3994 41.8089C44.3994 41.4954 44.2819 41.1819 44.0467 40.8684C43.8116 40.5549 43.5569 40.3982 43.2826 40.3982C43.0083 40.3982 42.5577 40.6529 41.9307 41.1623C41.3037 41.6325 40.6376 41.8677 39.9322 41.8677C37.2284 41.8677 34.9164 40.6529 32.9963 38.2234C31.1154 35.7547 29.6459 32.6198 28.5879 28.8188C30.1945 25.0961 31.4289 21.2559 32.291 17.2981C33.1923 13.3403 33.6429 9.91156 33.6429 7.01181C33.6429 3.01485 32.8788 1.01637 31.3505 1.01637C29.2345 1.01637 27.334 3.48508 25.649 8.4225C24.0032 13.3599 22.9451 19.5709 22.4749 27.0554C22.4749 29.7592 22.6904 32.2867 23.1215 34.6379C20.7703 37.3809 18.1841 38.7524 15.3627 38.7524C12.5805 38.7524 10.5624 37.616 9.30846 35.3432C8.72067 34.2852 8.23084 33.2076 7.83899 32.1104C7.44713 31.0132 7.15323 29.5241 6.9573 27.6432C6.76137 25.7623 6.66341 24.234 6.66341 23.0584Z" fill="#7BAB6E"/>
</svg>
